<svg xmlns="http://www.w3.org/2000/svg" width="24" height="24" viewBox="0 0 24 24">
  <g id="Group_185" data-name="Group 185" transform="translate(-531 -3810)">
    <g id="message-edit_bulk" data-name="message-edit/bulk" transform="translate(531 3810)">
      <g id="vuesax_bulk_message-edit" data-name="vuesax/bulk/message-edit">
        <g id="message-edit">
          <path id="Vector" d="M0,0H24V24H0Z" fill="none" opacity="0"/>
          <path id="Vector-2" data-name="Vector" d="M14,0H6Q0,0,0,6V19a1,1,0,0,0,1,1H14q6,0,6-6V6Q20,0,14,0Z" transform="translate(2 2)" fill="#92278f" opacity="0.4"/>
          <g id="Group">
            <path id="Vector-3" data-name="Vector" d="M4.637.956a2.336,2.336,0,0,0-3.77,0l-.79.79a.28.28,0,0,0-.07.26,5.238,5.238,0,0,0,3.58,3.58.2.2,0,0,0,.08.01.273.273,0,0,0,.19-.08l.78-.78a2.688,2.688,0,0,0,.95-1.87A2.712,2.712,0,0,0,4.637.956Z" transform="translate(11.913 6.504)" fill="#92278f"/>
            <path id="Vector-4" data-name="Vector" d="M7.829,3.55a4.629,4.629,0,0,1-.54-.29,3.622,3.622,0,0,1-.41-.27,3.608,3.608,0,0,1-.37-.28.407.407,0,0,1-.11-.1,7.048,7.048,0,0,1-.67-.67.5.5,0,0,1-.09-.12c-.07-.08-.17-.21-.27-.35a3.132,3.132,0,0,1-.25-.38,5.362,5.362,0,0,1-.28-.53c-.09-.2-.16-.38-.23-.56L.839,3.77a2.146,2.146,0,0,0-.53,1.05L.019,6.9a1.312,1.312,0,0,0,.33,1.13,1.253,1.253,0,0,0,.9.35,1.785,1.785,0,0,0,.23-.02l2.08-.29a2.146,2.146,0,0,0,1.05-.53l3.77-3.77C8.2,3.7,8.019,3.63,7.829,3.55Z" transform="translate(6.511 9.12)" fill="#92278f"/>
          </g>
        </g>
      </g>
    </g>
  </g>
</svg>
