<svg xmlns="http://www.w3.org/2000/svg" width="63.935" height="80" viewBox="0 0 63.935 80">
  <g id="clipboard" transform="translate(-51.408)">
    <path id="Path_295" data-name="Path 295" d="M111.124,9.143H92.217V4.219A4.223,4.223,0,0,0,88,0H78.752a4.223,4.223,0,0,0-4.219,4.219V9.143H55.627a4.223,4.223,0,0,0-4.219,4.219v62.42A4.223,4.223,0,0,0,55.627,80h55.5a4.223,4.223,0,0,0,4.219-4.219V13.362a4.224,4.224,0,0,0-4.219-4.219ZM65.294,13.83h6.239v6.68a4.223,4.223,0,0,0,4.219,4.219H91a4.223,4.223,0,0,0,4.219-4.219V13.83h6.239V65.223H65.294Zm10.926,0H90.531v6.211H76.22Zm3-9.143H87.53V9.143H79.221Zm31.434,70.625H56.1V13.83h4.511V65.692a4.223,4.223,0,0,0,4.219,4.219h37.1a4.223,4.223,0,0,0,4.219-4.219V13.83h4.511V75.313Z" fill="#fff"/>
    <path id="Path_296" data-name="Path 296" d="M202.6,228.04l-9.245,9.245-5.207-5.207a2.344,2.344,0,1,0-3.315,3.315l6.865,6.865a2.343,2.343,0,0,0,3.314,0l10.9-10.9a2.344,2.344,0,1,0-3.314-3.315Z" transform="translate(-111.997 -191.83)" fill="#00a79d"/>
  </g>
</svg>
