<svg id="invoice" xmlns="http://www.w3.org/2000/svg" width="80" height="80" viewBox="0 0 80 80">
  <path id="Path_291" data-name="Path 291" d="M78.553,23.928A2.343,2.343,0,0,0,76,24.436l-3.03,3.03-3.03-3.03a2.344,2.344,0,0,0-3.315,0l-3.03,3.03L61.25,25.123v-13.4A11.732,11.732,0,0,0,49.532,0h-37.5A11.979,11.979,0,0,0,0,11.719V77.656a2.344,2.344,0,0,0,3.947,1.71L7.291,76.23l3.083,3.083a2.344,2.344,0,0,0,3.315,0l3.03-3.03,3.03,3.03a2.344,2.344,0,0,0,3.315,0l3.03-3.03,3.03,3.03a2.344,2.344,0,0,0,3.315,0l3.03-3.03,3.03,3.03a2.344,2.344,0,0,0,4-1.657V51.875H68.281A11.732,11.732,0,0,0,80,40.156V26.094a2.344,2.344,0,0,0-1.447-2.165ZM37.812,72l-.687-.687a2.344,2.344,0,0,0-3.315,0l-3.03,3.03-3.03-3.03a2.344,2.344,0,0,0-3.315,0l-3.03,3.03-3.03-3.03a2.344,2.344,0,0,0-3.315,0l-3.03,3.03L9,71.311a2.344,2.344,0,0,0-3.26-.052l-1.053.987V11.719a7.289,7.289,0,0,1,7.344-7.031H40.162a11.658,11.658,0,0,0-2.35,7.031ZM42.5,11.719a7.031,7.031,0,1,1,14.062,0V40.156a11.657,11.657,0,0,0,2.35,7.031H42.5ZM75.312,40.156a7.031,7.031,0,0,1-14.062,0v-8.4l.687.687a2.344,2.344,0,0,0,3.315,0l3.03-3.03,3.03,3.03a2.344,2.344,0,0,0,3.315,0l.687-.687v8.4Z" fill="#fff"/>
  <path id="Path_292" data-name="Path 292" d="M83.292,302H64.366a2.366,2.366,0,0,0,0,4.732H83.292a2.366,2.366,0,0,0,0-4.732Z" transform="translate(-52.221 -254.84)" fill="#fff"/>
  <path id="Path_293" data-name="Path 293" d="M83.292,362H64.366a2.366,2.366,0,1,0,0,4.732H83.292a2.366,2.366,0,1,0,0-4.732Z" transform="translate(-52.221 -305.471)" fill="#fff"/>
  <path id="Path_294" data-name="Path 294" d="M88.829,85.658H84.1a2.368,2.368,0,0,1-2.366-2.366,2.366,2.366,0,0,0-4.732,0,7.105,7.105,0,0,0,7.1,7.1v2.366a2.366,2.366,0,0,0,4.732,0V90.39a7.1,7.1,0,1,0,0-14.195H84.1a2.366,2.366,0,0,1,0-4.732h4.732a2.368,2.368,0,0,1,2.366,2.366,2.366,2.366,0,0,0,4.732,0,7.105,7.105,0,0,0-7.1-7.1V64.366a2.366,2.366,0,0,0-4.732,0v2.366a7.1,7.1,0,0,0,0,14.195h4.732a2.366,2.366,0,0,1,0,4.732Z" transform="translate(-65.003 -52.221)" fill="#00a79d"/>
</svg>
