<svg xmlns="http://www.w3.org/2000/svg" width="80.314" height="80" viewBox="0 0 80.314 80">
  <g id="arrow" transform="translate(0 -0.5)">
    <path id="Path_297" data-name="Path 297" d="M79.728,57.774,70.881,47.683V15.4a2.35,2.35,0,0,0-.69-1.664L57.618,1.189A2.357,2.357,0,0,0,55.951.5H8.644A8.645,8.645,0,0,0,0,9.127v53.49a8.645,8.645,0,0,0,8.644,8.627h41.02v6.9A2.355,2.355,0,0,0,52.022,80.5h18.86a2.355,2.355,0,0,0,2.358-2.353V61.676h4.715a2.355,2.355,0,0,0,1.774-3.9ZM19.018,5.206H42.592V24.029H19.018ZM4.715,62.618V9.127A3.93,3.93,0,0,1,8.644,5.206H14.3V26.382a2.355,2.355,0,0,0,2.357,2.353H44.95a2.355,2.355,0,0,0,2.357-2.353V5.206h7.668l11.192,11.17V42.3L63.226,38.95a2.362,2.362,0,0,0-3.548,0L56.737,42.3V40.5a2.355,2.355,0,0,0-2.358-2.353H16.66A2.355,2.355,0,0,0,14.3,40.5V66.539H8.644a3.93,3.93,0,0,1-3.929-3.922Zm14.3,3.922V42.853h33c0,5.3,0,4.652.006,4.824l-8.852,10.1a2.355,2.355,0,0,0,1.774,3.9h4.715v4.863Zm51.864-9.569a2.355,2.355,0,0,0-2.357,2.353V75.794H54.38V59.324a2.355,2.355,0,0,0-2.358-2.353H50.145l11.307-12.9,11.307,12.9Zm0,0" fill="#fff"/>
    <path id="Path_298" data-name="Path 298" d="M172.35,302.853a2.355,2.355,0,0,0-2.358-2.353H153.647a2.353,2.353,0,1,0,0,4.706h16.345A2.355,2.355,0,0,0,172.35,302.853Zm0,0" transform="translate(-127.557 -252.941)" fill="#00a79d"/>
    <path id="Path_299" data-name="Path 299" d="M165.434,360.5H153.647a2.353,2.353,0,1,0,0,4.706h11.787a2.353,2.353,0,1,0,0-4.706Zm0,0" transform="translate(-127.557 -303.529)" fill="#00a79d"/>
    <path id="Path_300" data-name="Path 300" d="M213.764,60.5a2.355,2.355,0,0,0-2.357,2.353v4.706a2.358,2.358,0,0,0,4.715,0V62.853A2.355,2.355,0,0,0,213.764,60.5Zm0,0" transform="translate(-178.245 -50.588)" fill="#00a79d"/>
  </g>
</svg>
