<svg width="555" height="400" viewBox="0 0 555 400" fill="none" xmlns="http://www.w3.org/2000/svg">
<g id="Speech bubble 1" clip-path="url(#clip0_142_2)">
<g id="Speech bubble">
<g id="Group 32">
<path id="Path 1" style="mix-blend-mode:multiply" d="M550.179 185.4C541.551 186.788 531.913 185.526 525.129 181.609C518.345 177.692 516.161 172.128 518.566 167.147L513.832 164.415L444.872 204.232L446.252 206.964C446.252 206.964 457.838 200.79 474.652 210.754C481.393 214.748 483.621 220.235 481.218 225.216L482.598 227.949H485.952L554.91 188.132L550.179 185.4Z" fill="url(#paint0_linear_142_2)"/>
<g id="Group 7">
<path id="Path 2" d="M515.209 167.15V165.215C514.448 166.749 514.142 168.469 514.327 170.171C514.448 169.121 514.746 168.1 515.209 167.15Z" fill="#423EAF"/>
<path id="Path 3" d="M471.301 208.815C464.517 204.898 454.879 203.636 446.252 205.025V206.962C454.879 205.573 464.517 206.835 471.301 210.751C475.886 213.398 478.361 216.796 478.748 220.258C479.214 216.151 476.739 211.954 471.301 208.815Z" fill="url(#paint1_linear_142_2)"/>
<path id="Path 4" d="M521.774 179.674C514.989 175.757 512.806 170.194 515.211 165.213L510.477 162.48L441.521 202.293L446.255 205.025C454.882 203.636 464.52 204.898 471.304 208.815C478.088 212.732 480.273 218.296 477.869 223.277L482.602 226.01L551.559 186.197L546.825 183.465C538.195 184.854 528.558 183.592 521.774 179.674Z" fill="url(#paint2_linear_142_2)"/>
<g id="Group 5">
<path id="Path 5" d="M495.323 174.424L496.581 173.696L493.814 172.096L492.556 172.823L495.323 174.424Z" fill="white"/>
<path id="Path 6" d="M500.112 177.189L501.37 176.462L498.603 174.862L497.346 175.588L500.112 177.189Z" fill="white"/>
<path id="Path 7" d="M504.902 179.954L506.16 179.228L503.393 177.628L502.136 178.354L504.902 179.954Z" fill="white"/>
<path id="Path 8" d="M509.691 182.719L510.949 181.992L508.182 180.392L506.925 181.118L509.691 182.719Z" fill="white"/>
<path id="Path 9" d="M514.476 185.481L515.734 184.754L512.966 183.154L511.709 183.882L514.476 185.481Z" fill="white"/>
<path id="Path 10" d="M519.269 188.25L520.527 187.524L517.76 185.924L516.502 186.65L519.269 188.25Z" fill="white"/>
<path id="Path 11" d="M524.058 191.014L525.316 190.287L522.548 188.687L521.29 189.414L524.058 191.014Z" fill="white"/>
<path id="Path 12" d="M528.847 193.78L530.105 193.053L527.339 191.453L526.081 192.18L528.847 193.78Z" fill="white"/>
<path id="Path 13" d="M533.636 196.545L534.894 195.818L532.127 194.218L530.869 194.944L533.636 196.545Z" fill="white"/>
<path id="Path 14" d="M533.637 198.48L534.895 197.753V195.818L533.637 196.544V198.48Z" fill="#BBC0E6"/>
</g>
<g id="Group 6">
<path id="Path 15" d="M485.465 184.553L495.813 178.578L492.558 176.698L482.209 182.673L485.465 184.553Z" fill="#00A79D"/>
<path id="Path 16" d="M478.469 188.592L483.486 185.692L480.231 183.813L475.214 186.713L478.469 188.592Z" fill="#00A79D"/>
<path id="Path 17" d="M473.084 191.7L476.109 189.953L472.853 188.073L469.832 189.821L473.084 191.7Z" fill="#00A79D"/>
<path id="Path 18" d="M467.372 194.997L470.398 193.25L467.142 191.371L464.116 193.118L467.372 194.997Z" fill="#00A79D"/>
</g>
<path id="Path 19" d="M533.637 196.544L482.6 226.01V227.947L533.637 198.481V196.544Z" fill="#362E94"/>
<path id="Path 20" d="M482.599 226.01L477.864 223.277V225.214L482.597 227.946L482.599 226.01Z" fill="#423EAF"/>
<path id="Path 21" d="M446.252 205.025L441.521 202.293V204.23L446.254 206.962L446.252 205.025Z" fill="#423EAF"/>
<path id="Path 22" d="M551.561 186.197L534.898 195.818V197.755L551.561 188.134V186.197Z" fill="#362E94"/>
</g>
<g id="Path 23" style="mix-blend-mode:screen">
<path d="M486.029 194.184C484.708 193.515 483.248 193.167 481.767 193.167C480.286 193.167 478.826 193.515 477.505 194.184C475.155 195.541 475.155 197.749 477.505 199.105C478.826 199.774 480.285 200.122 481.765 200.122C483.246 200.122 484.705 199.774 486.026 199.105C488.379 197.752 488.379 195.542 486.029 194.184ZM479.102 198.184C477.632 197.335 477.632 195.954 479.102 195.106C479.928 194.687 480.842 194.469 481.768 194.469C482.694 194.469 483.608 194.687 484.434 195.106C485.904 195.955 485.905 197.335 484.434 198.184C483.608 198.603 482.694 198.821 481.768 198.821C480.842 198.821 479.928 198.603 479.102 198.185V198.184ZM498.476 194.184C496.125 195.541 496.125 197.749 498.476 199.105C499.797 199.774 501.257 200.123 502.738 200.123C504.22 200.123 505.68 199.774 507.001 199.105C509.35 197.749 509.35 195.541 507.001 194.184C505.68 193.515 504.219 193.167 502.738 193.167C501.258 193.167 499.797 193.515 498.476 194.184V194.184ZM505.404 198.184C504.578 198.603 503.664 198.821 502.738 198.821C501.812 198.821 500.898 198.603 500.072 198.184C498.601 197.335 498.601 195.955 500.072 195.105C500.898 194.687 501.811 194.469 502.738 194.469C503.664 194.469 504.577 194.687 505.403 195.105C506.873 195.952 506.873 197.335 505.404 198.184ZM491.124 189.103V204.189H493.382V189.103H491.124Z" fill="#9B9DA0"/>
</g>
<path id="Rectangle 3" style="mix-blend-mode:multiply" d="M473.121 156.347H421.973V184.016H473.121V156.347Z" fill="url(#paint3_linear_142_2)"/>
<g id="Group 11">
<g id="Group 10">
<g id="Group 8">
<path id="Path 24" d="M398.045 142.628C398.045 139.066 400.399 135.501 405.107 132.784C409.815 130.067 415.99 128.705 422.161 128.705C428.332 128.705 434.502 130.067 439.212 132.784C443.922 135.501 446.275 139.064 446.275 142.628C446.275 146.192 443.922 149.756 439.212 152.473C434.502 155.19 428.333 156.55 422.161 156.55C415.989 156.55 409.82 155.188 405.112 152.474C400.404 149.76 398.047 146.188 398.045 142.628Z" fill="#FFD07D"/>
<path id="Path 25" d="M439.212 152.473C434.504 155.192 428.333 156.55 422.161 156.55C415.989 156.55 409.818 155.193 405.109 152.473C400.4 149.753 398.046 146.189 398.044 142.628V149.501C398.044 153.064 400.398 156.627 405.109 159.346C409.82 162.065 415.989 163.424 422.161 163.424C428.333 163.424 434.504 162.065 439.212 159.346C443.92 156.627 446.277 153.064 446.275 149.5V142.627C446.278 146.189 443.923 149.756 439.212 152.473Z" fill="url(#paint4_linear_142_2)"/>
<path id="Path 26" d="M439.212 159.346C434.504 162.066 428.333 163.424 422.161 163.424C415.989 163.424 409.818 162.066 405.109 159.346C400.4 156.626 398.046 153.064 398.044 149.502V156.375C398.044 159.938 400.398 163.502 405.109 166.22C409.82 168.938 415.989 170.298 422.161 170.298C428.333 170.298 434.504 168.939 439.212 166.22C443.92 163.501 446.277 159.937 446.275 156.374V149.504C446.278 153.065 443.923 156.627 439.212 159.346Z" fill="url(#paint5_linear_142_2)"/>
<path id="Path 27" d="M439.212 166.221C434.504 168.942 428.333 170.299 422.161 170.299C415.989 170.299 409.818 168.942 405.109 166.221C400.4 163.5 398.046 159.938 398.044 156.377V163.249C398.044 166.812 400.398 170.376 405.109 173.096C409.82 175.816 415.989 177.174 422.161 177.174C428.333 177.174 434.504 175.815 439.212 173.096C443.92 170.377 446.277 166.812 446.275 163.249V156.378C446.278 159.938 443.923 163.503 439.212 166.221Z" fill="url(#paint6_linear_142_2)"/>
<path id="Path 28" d="M439.212 173.095C434.504 175.815 428.333 177.173 422.161 177.173C415.989 177.173 409.82 175.815 405.112 173.095C400.404 170.375 398.049 166.811 398.047 163.25V170.123C398.047 173.686 400.401 177.248 405.112 179.967C409.823 182.686 415.992 184.045 422.164 184.045C428.336 184.045 434.507 182.686 439.215 179.967C443.923 177.248 446.28 173.685 446.278 170.12V163.249C446.278 166.811 443.923 170.376 439.212 173.095Z" fill="url(#paint7_linear_142_2)"/>
<path id="Path 29" d="M408.309 150.624C412.6 152.801 417.344 153.935 422.156 153.935C426.968 153.935 431.712 152.801 436.003 150.624C439.533 148.586 441.429 145.965 441.703 143.298C441.433 140.632 439.536 138.011 436.003 135.973C431.711 133.796 426.966 132.661 422.153 132.661C417.34 132.661 412.595 133.796 408.303 135.973C404.775 138.011 402.881 140.63 402.603 143.298C402.889 145.965 404.783 148.585 408.309 150.624Z" fill="#FFAF6D"/>
<path id="Path 30" d="M408.311 135.974C412.603 133.797 417.348 132.662 422.161 132.662C426.974 132.662 431.719 133.797 436.011 135.974C439.541 138.012 441.437 140.633 441.711 143.299C441.738 143.077 441.752 142.853 441.752 142.629C441.752 139.734 439.841 136.842 436.014 134.629C431.722 132.451 426.977 131.315 422.164 131.315C417.351 131.315 412.606 132.451 408.314 134.629C404.49 136.837 402.578 139.729 402.578 142.629C402.579 142.853 402.593 143.077 402.619 143.299C402.889 140.63 404.783 138.011 408.311 135.974Z" fill="url(#paint8_linear_142_2)"/>
</g>
<g id="Group 9">
<path id="Path 31" d="M431.809 139.753L433.661 138.684V137.345L431.809 138.411V139.753Z" fill="#E57139"/>
<path id="Path 32" d="M423.265 141.991C422.953 141.886 422.681 141.685 422.489 141.417C422.297 141.15 422.193 140.828 422.193 140.499C422.193 140.169 422.297 139.847 422.489 139.58C422.681 139.312 422.953 139.111 423.265 139.006C424.067 138.6 424.952 138.389 425.851 138.389C426.749 138.389 427.635 138.6 428.436 139.006C429.863 139.828 429.863 141.17 428.436 141.991L430.784 143.346C433.099 142.011 433.436 139.961 431.809 138.411L433.661 137.344L431.315 135.987L429.462 137.058C428.07 136.584 426.597 136.393 425.13 136.495C423.663 136.597 422.231 136.991 420.918 137.653C420.32 137.852 419.8 138.234 419.432 138.745C419.064 139.256 418.865 139.87 418.865 140.5C418.865 141.129 419.064 141.743 419.432 142.254C419.8 142.765 420.32 143.147 420.918 143.346C422.344 144.172 422.347 145.51 420.918 146.333C420.116 146.739 419.23 146.95 418.331 146.95C417.432 146.95 416.546 146.739 415.744 146.333C414.318 145.51 414.318 144.171 415.744 143.346L413.399 141.991C411.081 143.33 410.745 145.377 412.369 146.925L410.66 147.913L413.007 149.269L414.717 148.281C416.109 148.754 417.582 148.946 419.049 148.845C420.517 148.744 421.949 148.351 423.263 147.691C425.984 146.118 425.984 143.565 423.265 141.991Z" fill="#FFD07D"/>
<path id="Path 33" d="M410.661 149.254L413.009 150.609V149.269L410.661 147.913V149.254Z" fill="#FB944B"/>
<path id="Path 34" d="M413.009 150.608L414.719 149.62V148.28L413.009 149.268V150.608Z" fill="#E57139"/>
<path id="Path 35" d="M428.436 143.333L430.784 144.688V143.346L428.435 141.99L428.436 143.333Z" fill="#FB944B"/>
<path id="Path 36" d="M415.744 144.688V143.346C414.732 143.931 414.444 144.776 414.866 145.51C415.081 145.163 415.384 144.879 415.744 144.688V144.688Z" fill="#E57139"/>
<path id="Path 37" d="M411.361 144.772V146.282C411.38 146.651 411.48 147.012 411.653 147.338L412.362 146.927C412.053 146.66 411.803 146.331 411.631 145.961C411.459 145.59 411.367 145.187 411.362 144.779L411.361 144.772Z" fill="#FB944B"/>
<path id="Path 38" d="M420.919 144.685C421.28 144.877 421.583 145.162 421.797 145.51C422.222 144.776 421.931 143.932 420.919 143.346C420.355 143.096 419.869 142.7 419.509 142.199C419.15 141.698 418.931 141.11 418.875 140.496V141.84C418.932 142.453 419.151 143.04 419.51 143.54C419.869 144.041 420.356 144.436 420.919 144.685V144.685Z" fill="#FB944B"/>
<path id="Path 39" d="M425.304 144.836V144.805C425.302 144.816 425.304 144.824 425.304 144.836Z" fill="#FB944B"/>
<path id="Path 40" d="M432.815 140.496C432.762 141.109 432.546 141.697 432.189 142.198C431.831 142.699 431.346 143.096 430.784 143.346V144.688C431.36 144.435 431.854 144.028 432.213 143.511C432.571 142.995 432.78 142.389 432.815 141.761V141.761V140.492V140.496Z" fill="#E57139"/>
<path id="Path 41" d="M423.265 147.691C421.951 148.351 420.519 148.744 419.051 148.845C417.584 148.946 416.111 148.754 414.719 148.281V149.621C416.111 150.095 417.584 150.287 419.052 150.185C420.519 150.083 421.951 149.69 423.265 149.029C423.823 148.779 424.305 148.387 424.663 147.891C425.021 147.396 425.242 146.814 425.303 146.206V144.846C425.246 145.458 425.027 146.044 424.669 146.544C424.311 147.044 423.826 147.44 423.265 147.691V147.691Z" fill="url(#paint9_linear_142_2)"/>
<path id="Path 42" d="M428.436 139.007C427.635 138.601 426.749 138.39 425.851 138.39C424.952 138.39 424.067 138.601 423.265 139.007C422.97 139.138 422.716 139.345 422.527 139.607C422.339 139.869 422.223 140.176 422.192 140.497C422.195 140.734 422.261 140.967 422.382 141.171C422.6 140.825 422.904 140.542 423.265 140.351C424.066 139.945 424.952 139.733 425.851 139.733C426.749 139.733 427.635 139.945 428.436 140.351C428.797 140.544 429.1 140.828 429.315 141.176C429.74 140.433 429.449 139.59 428.436 139.007Z" fill="#E57139"/>
</g>
</g>
</g>
<path id="Rectangle 4" style="mix-blend-mode:multiply" d="M120.864 230.731H51.172V258.4H120.864V230.731Z" fill="url(#paint10_linear_142_2)"/>
<g id="translat_2" style="transform-origin: center; transform-box: fill-box; animation: translateX 2s linear infinite alternate;" >
<g id="Group 14">
<g id="Group 12">
<path id="Path 43" d="M27.055 203.265C27.055 199.703 29.408 196.138 34.117 193.421C38.826 190.704 44.999 189.342 51.171 189.342C57.343 189.342 63.512 190.704 68.222 193.421C72.932 196.138 75.285 199.701 75.285 203.265C75.285 206.829 72.933 210.393 68.222 213.11C63.511 215.827 57.343 217.187 51.171 217.187C44.999 217.187 38.829 215.83 34.12 213.111C29.411 210.392 27.057 206.826 27.055 203.265Z" fill="#FFD07D"/>
<path id="Path 44" d="M68.222 213.11C63.515 215.829 57.343 217.187 51.171 217.187C44.999 217.187 38.828 215.829 34.12 213.11C29.412 210.391 27.057 206.826 27.055 203.265V210.137C27.055 213.701 29.409 217.264 34.12 219.983C38.831 222.702 45 224.06 51.171 224.06C57.342 224.06 63.514 222.701 68.222 219.983C72.93 217.265 75.287 213.701 75.285 210.136V203.263C75.289 206.826 72.933 210.393 68.222 213.11Z" fill="url(#paint11_linear_142_2)"/>
<path id="Path 45" d="M68.222 219.984C63.515 222.704 57.343 224.061 51.171 224.061C44.999 224.061 38.828 222.704 34.12 219.984C29.412 217.264 27.057 213.702 27.055 210.14V217.012C27.055 220.575 29.409 224.139 34.12 226.858C38.831 229.577 45 230.936 51.171 230.936C57.342 230.936 63.514 229.577 68.222 226.858C72.93 224.139 75.287 220.575 75.285 217.011V210.14C75.289 213.703 72.933 217.265 68.222 219.984Z" fill="url(#paint12_linear_142_2)"/>
<path id="Path 46" d="M68.222 226.858C63.515 229.578 57.343 230.936 51.171 230.936C44.999 230.936 38.828 229.578 34.12 226.858C29.412 224.138 27.057 220.575 27.055 217.014V223.887C27.055 227.45 29.409 231.013 34.12 233.734C38.831 236.455 45 237.811 51.171 237.811C57.342 237.811 63.514 236.452 68.222 233.734C72.93 231.016 75.287 227.45 75.285 223.886V217.018C75.289 220.575 72.933 224.14 68.222 226.858Z" fill="url(#paint13_linear_142_2)"/>
<path id="Path 47" d="M68.222 233.733C63.515 236.453 57.343 237.81 51.171 237.81C44.999 237.81 38.828 236.453 34.12 233.733C29.412 231.013 27.057 227.449 27.055 223.887V230.761C27.055 234.323 29.409 237.886 34.12 240.605C38.831 243.324 45 244.683 51.171 244.683C57.342 244.683 63.514 243.324 68.222 240.605C72.93 237.886 75.287 234.323 75.285 230.759V223.887C75.289 227.449 72.933 231.014 68.222 233.733Z" fill="url(#paint14_linear_142_2)"/>
<path id="Path 48" d="M68.222 240.604C63.515 243.324 57.343 244.682 51.171 244.682C44.999 244.682 38.828 243.324 34.12 240.604C29.412 237.884 27.057 234.321 27.055 230.76V237.633C27.055 241.196 29.409 244.76 34.12 247.48C38.831 250.2 45 251.558 51.171 251.558C57.342 251.558 63.514 250.199 68.222 247.48C72.93 244.761 75.287 241.196 75.285 237.633V230.761C75.289 234.322 72.933 237.887 68.222 240.604Z" fill="url(#paint15_linear_142_2)"/>
<path id="Path 49" d="M68.222 247.479C63.515 250.199 57.343 251.557 51.171 251.557C44.999 251.557 38.828 250.199 34.12 247.479C29.412 244.759 27.057 241.195 27.055 237.634V244.507C27.055 248.07 29.409 251.632 34.12 254.351C38.831 257.07 45 258.429 51.171 258.429C57.342 258.429 63.514 257.07 68.222 254.351C72.93 251.632 75.287 248.069 75.285 244.504V237.633C75.289 241.195 72.933 244.76 68.222 247.479Z" fill="url(#paint16_linear_142_2)"/>
<path id="Path 50" d="M37.324 211.261C41.5827 213.526 46.3493 214.666 51.172 214.573C55.9944 214.666 60.7607 213.526 65.019 211.261C68.549 209.223 70.445 206.602 70.719 203.935C70.449 201.269 68.552 198.648 65.019 196.611C60.7613 194.343 55.9942 193.202 51.171 193.296C46.3474 193.201 41.5797 194.341 37.321 196.608C33.793 198.645 31.899 201.264 31.621 203.932C31.899 206.602 33.793 209.223 37.324 211.261Z" fill="#FFAF6D"/>
<path id="Path 51" d="M37.321 196.608C41.5797 194.341 46.3474 193.201 51.171 193.296C55.9939 193.201 60.761 194.341 65.019 196.608C68.549 198.645 70.445 201.266 70.719 203.932C70.7456 203.71 70.7593 203.486 70.76 203.262C70.76 200.367 68.848 197.475 65.022 195.262C60.7638 192.995 55.9969 191.855 51.174 191.949C46.3504 191.855 41.5828 192.995 37.324 195.262C33.499 197.47 31.588 200.362 31.588 203.262C31.5887 203.486 31.6024 203.71 31.629 203.932C31.899 201.267 33.793 198.648 37.321 196.608Z" fill="url(#paint17_linear_142_2)"/>
</g>
<g id="Group 13">
<path id="Path 52" d="M60.82 200.389L62.672 199.32V197.981L60.82 199.047V200.389Z" fill="#E57139"/>
<path id="Path 53" d="M52.275 202.628C51.9625 202.523 51.6908 202.322 51.4984 202.055C51.3059 201.787 51.2024 201.466 51.2024 201.136C51.2024 200.806 51.3059 200.485 51.4984 200.217C51.6908 199.95 51.9625 199.749 52.275 199.644C53.0764 199.238 53.9621 199.026 54.8605 199.026C55.7589 199.026 56.6446 199.238 57.446 199.644C58.873 200.466 58.873 201.807 57.446 202.628L59.794 203.984C62.109 202.649 62.446 200.599 60.819 199.049L62.671 197.982L60.325 196.625L58.472 197.695C57.0798 197.221 55.6072 197.03 54.1402 197.132C52.6732 197.234 51.2413 197.627 49.928 198.289C49.3303 198.488 48.8104 198.87 48.442 199.381C48.0736 199.892 47.8753 200.506 47.8753 201.135C47.8753 201.765 48.0736 202.379 48.442 202.89C48.8104 203.401 49.3303 203.783 49.928 203.982C51.353 204.807 51.356 206.145 49.928 206.968C49.1259 207.374 48.2398 207.585 47.341 207.585C46.4422 207.585 45.556 207.374 44.754 206.968C43.328 206.145 43.328 204.806 44.754 203.982L42.409 202.626C40.092 203.966 39.755 206.012 41.38 207.56L39.671 208.549L42.017 209.905L43.726 208.917C45.1185 209.39 46.5913 209.582 48.0587 209.481C49.526 209.38 50.9586 208.988 52.273 208.328C54.995 206.755 54.995 204.202 52.275 202.628Z" fill="#FFD07D"/>
<path id="Path 54" d="M39.671 209.89L42.017 211.245V209.905L39.669 208.549L39.671 209.89Z" fill="#FB944B"/>
<path id="Path 55" d="M42.019 211.245L43.729 210.257V208.917L42.019 209.905V211.245Z" fill="#E57139"/>
<path id="Path 56" d="M57.446 203.97L59.795 205.326V203.983L57.446 202.627V203.97Z" fill="#FB944B"/>
<path id="Path 57" d="M44.755 205.324V203.983C43.743 204.568 43.455 205.412 43.877 206.146C44.0916 205.799 44.3946 205.515 44.755 205.324V205.324Z" fill="#E57139"/>
<path id="Path 58" d="M40.37 205.408V206.918C40.3892 207.287 40.4888 207.648 40.662 207.974L41.371 207.563C41.0614 207.296 40.812 206.967 40.6396 206.597C40.4672 206.226 40.3756 205.823 40.371 205.415L40.37 205.408Z" fill="#FB944B"/>
<path id="Path 59" d="M49.928 205.321C50.2881 205.514 50.5909 205.799 50.806 206.146C51.23 205.412 50.939 204.568 49.928 203.983C49.3643 203.733 48.8776 203.337 48.5183 202.836C48.1589 202.335 47.9399 201.747 47.884 201.133V202.476C47.9404 203.089 48.1596 203.676 48.5189 204.177C48.8783 204.677 49.3647 205.072 49.928 205.321V205.321Z" fill="#FB944B"/>
<path id="Path 60" d="M54.315 205.469V205.438C54.313 205.453 54.315 205.46 54.315 205.469Z" fill="#FB944B"/>
<path id="Path 61" d="M61.824 201.133C61.7712 201.746 61.555 202.334 61.198 202.835C60.841 203.336 60.3562 203.733 59.794 203.983V205.324C60.3699 205.072 60.8646 204.664 61.223 204.148C61.5814 203.631 61.7894 203.025 61.824 202.397V202.397V201.128V201.133Z" fill="#E57139"/>
<path id="Path 62" d="M52.272 208.328C50.9576 208.988 49.525 209.38 48.0577 209.481C46.5903 209.582 45.1175 209.39 43.725 208.917V210.256C45.1175 210.73 46.5906 210.922 48.0581 210.821C49.5256 210.719 50.9582 210.326 52.272 209.664C52.8299 209.414 53.3121 209.022 53.6699 208.526C54.0277 208.03 54.2485 207.449 54.31 206.841V205.481C54.2528 206.093 54.034 206.68 53.6759 207.18C53.3178 207.68 52.8333 208.076 52.272 208.328Z" fill="url(#paint18_linear_142_2)"/>
<path id="Path 63" d="M57.447 199.643C56.6456 199.237 55.7598 199.026 54.8615 199.026C53.9631 199.026 53.0774 199.237 52.276 199.643C51.9812 199.774 51.7265 199.981 51.5379 200.243C51.3494 200.505 51.2338 200.812 51.203 201.133C51.2059 201.37 51.2715 201.602 51.393 201.806C51.6108 201.46 51.9152 201.178 52.276 200.986C53.0773 200.58 53.9631 200.368 54.8615 200.368C55.7599 200.368 56.6457 200.58 57.447 200.986C57.8075 201.179 58.1107 201.463 58.326 201.811C58.751 201.069 58.46 200.226 57.447 199.643Z" fill="#E57139"/>
</g>
</g>
</g>
<path id="Path 64" style="mix-blend-mode:multiply" d="M478.143 173.064C473.932 170.055 468.82 168.574 463.653 168.864H455.493V170.618C453.955 171.247 452.504 172.07 451.175 173.068C443.755 178.727 443.797 187.901 451.267 193.559C452.57 194.532 453.99 195.339 455.493 195.959V197.79H465.281C469.935 197.767 474.464 196.287 478.233 193.557C485.657 187.901 485.616 178.723 478.143 173.064Z" fill="url(#paint19_linear_142_2)"/>
<g id="Group 16">
<path id="Path 65" d="M468.22 166.871C465.635 164.286 462.493 162.327 459.035 161.143C453.361 159.171 447.172 159.297 442.621 161.943C440.434 163.159 438.713 165.068 437.729 167.369L435.586 172.558C436.571 170.256 438.293 168.347 440.481 167.13C443.649 165.408 447.264 164.685 450.851 165.054C456.593 165.523 461.985 168.004 466.077 172.06C470.689 176.75 472.027 182.412 470.177 186.898L472.32 181.709C474.17 177.22 472.832 171.559 468.22 166.871Z" fill="url(#paint20_linear_142_2)"/>
<path id="Path 66" d="M467.65 168.252C474.486 175.2 474.125 184.288 466.85 188.517C459.575 192.746 448.093 190.535 441.257 183.59C434.421 176.645 434.775 167.549 442.051 163.324C449.327 159.099 460.808 161.305 467.65 168.252Z" fill="#FFAF6D"/>
<path id="Path 67" d="M476.318 183.353C475.602 185.083 474.888 186.813 474.175 188.542C472.961 191.38 470.837 193.733 468.138 195.232C459.17 200.443 445.065 197.732 436.638 189.167C430.954 183.393 429.304 176.434 431.584 170.917C432.298 169.188 433.012 167.458 433.726 165.728C431.449 171.245 433.1 178.204 438.782 183.98C447.208 192.539 461.313 195.255 470.282 190.043C472.981 188.545 475.105 186.191 476.318 183.353Z" fill="url(#paint21_linear_142_2)"/>
<path id="Path 68" d="M471.264 165.103C479.689 173.662 479.254 184.828 470.281 190.041C461.308 195.254 447.21 192.541 438.781 183.978C430.352 175.415 430.797 164.247 439.763 159.038C448.729 153.829 462.834 156.539 471.264 165.103ZM441.828 182.203C448.665 189.149 460.146 191.359 467.42 187.132C474.694 182.905 475.056 173.811 468.22 166.867C461.384 159.923 449.901 157.709 442.62 161.936C435.339 166.163 434.99 175.253 441.827 182.202L441.828 182.203Z" fill="#FFD07D"/>
</g>
<g id="Group 17">
<path id="Path 69" d="M444.685 178.913L445.677 178.335C445.263 177.742 444.994 177.06 444.89 176.344C444.785 175.629 444.85 174.899 445.077 174.212L444.512 175.566H444.518C444.13 176.66 444.19 177.863 444.685 178.913V178.913Z" fill="#FB944B"/>
<path id="Path 70" d="M453.385 176.628C453.672 176.896 453.902 177.219 454.063 177.577C454.223 177.936 454.311 178.322 454.32 178.715C455.182 177.815 455.074 176.384 453.954 175.247C453.392 174.727 452.944 174.096 452.636 173.395C452.328 172.694 452.167 171.938 452.164 171.172C452.182 170.675 452.295 170.186 452.497 169.731V169.731L451.957 171.046C451.735 171.519 451.61 172.032 451.591 172.555C451.595 173.321 451.756 174.077 452.065 174.778C452.373 175.479 452.823 176.108 453.385 176.628V176.628Z" fill="#FB944B"/>
<path id="Path 71" d="M449.055 174.3C448.731 174.475 448.459 174.732 448.267 175.047C448.075 175.361 447.969 175.721 447.962 176.089C448.116 175.93 448.292 175.793 448.485 175.683L449.055 174.3Z" fill="#E57139"/>
<path id="Path 72" d="M464.521 170.821C464.682 171.077 464.824 171.344 464.946 171.621L465.76 171.147L466.331 169.767L464.521 170.821Z" fill="#E57139"/>
<path id="Path 73" d="M461.146 174.855L460.577 176.236L462.727 178.422L463.298 177.04L461.146 174.855Z" fill="#FB944B"/>
<path id="Path 74" d="M463.299 177.04L462.727 178.422C463.507 177.991 464.124 177.317 464.485 176.503V176.497C464.485 176.488 464.493 176.48 464.498 176.47L465.06 175.109C464.698 175.927 464.08 176.605 463.299 177.04V177.04Z" fill="#E57139"/>
<path id="Path 75" d="M466.331 169.769L464.521 170.82C465.981 173.128 465.556 175.728 463.298 177.04L461.145 174.855C462.539 174.045 462.607 172.306 461.299 170.978C460.682 170.331 459.878 169.892 459 169.722C458.122 169.552 457.213 169.66 456.399 170.03C456.081 170.201 455.812 170.451 455.62 170.758C455.429 171.064 455.32 171.415 455.306 171.776C455.308 172.178 455.392 172.575 455.554 172.943C455.715 173.311 455.95 173.642 456.245 173.915C458.745 176.451 458.607 179.768 455.953 181.315C453.692 182.63 450.321 182.235 447.826 180.525L446.157 181.5L444.006 179.313L445.676 178.34C444.214 176.032 444.642 173.433 446.903 172.119L449.055 174.306C447.655 175.116 447.591 176.855 448.901 178.188C449.52 178.833 450.323 179.271 451.201 179.439C452.079 179.608 452.987 179.499 453.801 179.129C455.193 178.319 455.264 176.581 453.952 175.253C453.39 174.733 452.942 174.102 452.634 173.401C452.326 172.7 452.165 171.944 452.162 171.178C452.19 170.49 452.396 169.822 452.761 169.238C453.126 168.655 453.638 168.177 454.244 167.851C456.503 166.54 459.872 166.931 462.367 168.643L464.177 167.589L466.331 169.769Z" fill="#FFD07D"/>
<path id="Path 76" d="M444.007 179.304L443.436 180.685L445.588 182.871L446.158 181.49L444.007 179.304Z" fill="#FB944B"/>
<path id="Path 77" d="M446.158 181.494L445.588 182.875L447.257 181.905L447.827 180.52L446.158 181.494Z" fill="#E57139"/>
<path id="Path 78" d="M457.383 179.986V179.993C457.281 180.142 457.169 180.285 457.048 180.419C456.736 180.773 456.368 181.074 455.959 181.31C453.698 182.625 450.327 182.23 447.832 180.52L447.262 181.906C449.756 183.613 453.127 184.006 455.387 182.691C456.118 182.283 456.706 181.662 457.074 180.91V180.918L457.662 179.505C457.582 179.673 457.489 179.834 457.383 179.986V179.986Z" fill="url(#paint22_linear_142_2)"/>
<path id="Path 79" d="M461.681 174.44C462.534 173.54 462.421 172.109 461.304 170.978C460.687 170.331 459.883 169.892 459.005 169.722C458.127 169.552 457.218 169.66 456.404 170.03C456.086 170.201 455.817 170.451 455.625 170.758C455.434 171.064 455.325 171.415 455.311 171.776C455.311 171.792 455.311 171.808 455.311 171.824C455.463 171.663 455.638 171.525 455.83 171.414C456.644 171.044 457.553 170.936 458.431 171.105C459.309 171.275 460.112 171.713 460.73 172.359C461.287 172.884 461.621 173.604 461.663 174.368L461.681 174.44Z" fill="#E57139"/>
</g>
<path id="Path 80" style="mix-blend-mode:multiply" d="M288.689 113.846H274.461L380.785 175.234L189.995 285.387H204.222L395.014 175.233L288.689 113.846Z" fill="url(#paint23_linear_142_2)"/>
<g id="Group 18">
<path id="Path 81" d="M88.009 218.508V218.63C88.0132 218.589 88.0132 218.549 88.009 218.508ZM381.053 166.496C381.053 166.515 381.053 166.537 381.053 166.556C381.055 166.536 381.055 166.516 381.053 166.496V166.496ZM376.972 172.276L199.326 274.842C193.879 277.988 184.965 277.987 179.516 274.842L92.092 224.368C89.377 222.8 88.018 220.737 88.008 218.668V226.783C87.978 228.883 89.334 230.983 92.092 232.583L179.515 283.057C184.964 286.202 193.878 286.203 199.325 283.057L376.972 180.496C379.697 178.923 381.059 176.849 381.058 174.775V166.562C381.058 168.633 379.692 170.705 376.972 172.277V172.276Z" fill="url(#paint24_linear_142_2)"/>
<path id="Path 82" d="M199.325 274.842C193.878 277.988 184.964 277.987 179.515 274.842L92.092 224.368C86.645 221.223 86.645 216.077 92.092 212.931L269.74 110.367C275.188 107.221 284.103 107.222 289.55 110.367L376.973 160.839C382.421 163.985 382.421 169.132 376.973 172.276L199.325 274.842Z" fill="#E8ECF7"/>
<path id="Path 83" d="M202.205 267.461L104.878 211.269L272.05 114.751L369.377 170.943L202.205 267.461Z" fill="white"/>
<path id="Path 84" d="M315.546 132.157L339.228 145.835L337.704 146.713L314.019 133.035L315.546 132.157Z" fill="#BBC0E6"/>
</g>
<path id="Path 85" d="M152.081 240.168C149.809 239.014 147.296 238.413 144.747 238.413C142.199 238.413 139.686 239.014 137.414 240.168C133.361 242.506 133.363 246.298 137.414 248.637C139.687 249.79 142.2 250.391 144.749 250.391C147.297 250.391 149.81 249.79 152.083 248.637C156.134 246.298 156.133 242.506 152.081 240.168ZM150.025 247.449C148.389 248.279 146.581 248.711 144.747 248.711C142.913 248.711 141.105 248.279 139.469 247.449C136.555 245.766 136.555 243.038 139.469 241.355C141.105 240.525 142.913 240.093 144.747 240.093C146.581 240.093 148.389 240.525 150.025 241.355C152.94 243.038 152.941 245.766 150.025 247.449Z" fill="#CED3F8"/>
<path id="Path 86" style="mix-blend-mode:multiply" d="M220.838 316.458C216.525 313.967 210.792 312.821 205.16 312.989H196.332V314.435C194.706 314.937 193.14 315.616 191.662 316.458C183.634 321.127 183.68 328.692 191.762 333.358C193.211 334.18 194.744 334.845 196.335 335.341V336.851H206.924C211.813 336.869 216.629 335.669 220.938 333.36C228.963 328.692 228.923 321.127 220.838 316.458Z" fill="url(#paint25_linear_142_2)"/>
<g id="Group 19">
<path id="Path 87" d="M182.68 333.371C178.612 331.022 176.58 327.94 176.589 324.862L176.607 317.844C176.599 320.925 178.629 324.006 182.697 326.356C190.782 331.022 203.843 331.022 211.873 326.356C215.863 324.035 217.861 321.003 217.873 317.962L217.854 324.978C217.846 328.017 215.849 331.049 211.86 333.371C203.827 338.041 190.763 338.041 182.68 333.371Z" fill="url(#paint26_linear_142_2)"/>
<path id="Path 88" d="M182.697 326.356C174.616 321.69 174.571 314.121 182.597 309.456C190.623 304.791 203.697 304.789 211.776 309.456C219.855 314.123 219.9 321.69 211.87 326.356C203.84 331.022 190.782 331.022 182.697 326.356Z" fill="#F6F6FB"/>
<path id="Path 89" d="M207.823 316.947L192.556 317.724L193.03 314.292H188.812L187.667 320.547L207.823 319.383V316.947Z" fill="#00A79D"/>
</g>
<g id="translat_1"  style="transform-origin: center; transform-box: fill-box; animation: translateY 2s linear infinite alternate;">
<path id="Path 91" d="M122.289 322.688H122.295V333.058H122.289C122.31 340.123 119.989 346.607 116.517 350.699V340.327C119.991 336.24 122.311 329.753 122.289 322.688Z" fill="#A5ABCC"/>
<path id="Path 92" d="M37.37 333.785C58.789 346.151 99.537 345.136 116.518 340.331V350.702C99.538 355.502 58.789 356.522 37.37 344.155L0 322.58V312.209L37.37 333.785Z" fill="url(#paint27_linear_142_2)"/>
<path id="Path 93" d="M33.904 292.635C43.996 292.635 52.968 292.17 59.983 288.118C66.583 284.309 67.809 279.307 67.807 273.059L105.177 294.637C126.596 307.003 124.837 330.528 116.516 340.331C99.536 345.136 58.787 346.151 37.368 333.785L-0.0019989 312.209C10.091 312.209 19.063 311.74 26.08 307.691C32.679 303.881 33.904 298.881 33.904 292.635Z" fill="#EFEFF3"/>
<path id="Path 94" d="M99.376 297.985C110.889 304.631 114.495 315.038 114.081 323.985C113.698 315.713 109.746 306.676 99.376 300.685L73.959 286.014V283.314L99.376 297.985Z" fill="#BBC0E6"/>
<path id="Path 95" d="M65.784 291.467C69.2649 289.63 72.1137 286.79 73.961 283.314V286.014C72.1143 289.49 69.2663 292.331 65.786 294.17C58.658 298.285 50.086 299.551 41.807 299.924V297.224C50.087 296.848 58.656 295.582 65.784 291.467Z" fill="url(#paint28_linear_142_2)"/>
<path id="Path 96" d="M31.882 311.044C38.758 307.074 41.087 302.203 41.805 297.225V299.925C41.087 304.905 38.758 309.773 31.882 313.746C28.5663 315.609 24.9948 316.976 21.282 317.801C20.105 317.122 18.944 316.451 17.817 315.801C22.7508 315.064 27.5136 313.453 31.882 311.044V311.044Z" fill="url(#paint29_linear_142_2)"/>
<path id="Path 97" d="M65.784 294.166C69.2643 292.327 72.1123 289.486 73.959 286.01L99.376 300.685C109.747 306.673 113.699 315.71 114.081 323.985C113.941 328.492 112.628 332.884 110.273 336.729C109.181 336.969 107.987 337.192 106.718 337.402L41.805 299.92C50.087 299.546 58.656 298.285 65.784 294.166Z" fill="url(#paint30_linear_142_2)"/>
<path id="Path 98" d="M31.882 313.741C38.758 309.768 41.087 304.9 41.805 299.92L106.719 337.399C90.219 340.121 59.857 340.07 43.17 330.436C43.17 330.436 31.638 323.779 21.277 317.796C24.9915 316.971 28.5647 315.605 31.882 313.741Z" fill="url(#paint31_linear_142_2)"/>
</g>
<g id="Path 99" style="mix-blend-mode:multiply">
<path d="M73.962 286.149C72.1153 289.625 69.2673 292.466 65.787 294.305C58.659 298.42 50.087 299.686 41.808 300.059C41.09 305.039 38.761 309.907 31.885 313.88C28.5693 315.743 24.9978 317.11 21.285 317.935L24.078 319.548V319.47C27.7909 318.644 31.3623 317.278 34.678 315.414C41.554 311.441 43.883 306.573 44.601 301.593C52.883 301.22 61.452 299.954 68.58 295.839C72.0395 294.009 74.8747 291.189 76.723 287.739L73.962 286.149Z" fill="#D1D7F3"/>
</g>
<path id="Path 100" style="mix-blend-mode:multiply" d="M108.454 187.256C122.227 187.256 132.26 186.556 139.048 185.956C144.262 182.945 167.055 169.756 167.055 169.756L156.778 159.84L108.454 187.256Z" fill="url(#paint32_linear_142_2)"/>
<g id="Path 101" style="mix-blend-mode:multiply">
<path d="M147.013 181.308H165.404L161.477 172.939L147.013 181.308Z" fill="#E8ECF7"/>
</g>
<path id="Path 102" style="mix-blend-mode:multiply" d="M199.093 230.487C199.093 230.487 230.717 235.85 246.019 225.145C261.321 214.44 238.612 209.916 238.612 209.916L199.093 230.487Z" fill="url(#paint33_linear_142_2)"/>
<path id="Path 103" d="M257.401 274.662C265.562 276.345 286.35 274.52 292.538 272.015C298.726 269.51 307.282 262.673 307.282 262.673L290.073 252.561L257.401 274.662Z" fill="url(#paint34_linear_142_2)"/>
<path id="Path 105" style="mix-blend-mode:multiply" d="M452 224.975H496.492V208.909H394.984C384.869 208.909 372.567 206.542 367.51 203.621L428.247 238.688C415.129 231.114 425.764 224.975 452 224.975Z" fill="url(#paint35_linear_142_2)"/>
<path id="Path 106" d="M167.047 153.971L111.033 186.311V132.692L167.047 100.352V153.971Z" fill="url(#paint36_linear_142_2)"/>
<path id="Path 107" d="M261.815 196.576L205.801 228.916V175.297L261.815 142.957V196.576Z" fill="url(#paint37_linear_142_2)"/>
<path id="Path 108" d="M315.593 241.762L259.579 274.102V194.471L315.593 162.131V241.762Z" fill="url(#paint38_linear_142_2)"/>
<path id="Path 109" d="M182.354 96.165L168.744 88.145L50.994 156.128L100.427 185.256C108.867 190.128 115.709 186.179 115.709 176.433V144.833C115.709 137.925 118.176 133.11 122.145 130.933L182.354 96.165Z" fill="url(#paint39_linear_142_2)"/>
<path id="Path 110" d="M275.818 109.874V101.48C275.818 87.88 266.273 71.351 254.498 64.552C248.706 61.208 243.462 60.852 239.619 62.966L239.614 62.959L239.24 63.175L182.074 96.175L121.865 130.936C125.708 128.826 130.957 129.185 136.749 132.53C148.123 139.097 157.415 154.748 158.034 168.06C158.056 168.529 158.069 168.996 158.069 169.46V177.858C158.069 195.886 170.725 217.806 186.337 226.82C201.949 235.834 214.605 228.526 214.605 210.499C214.605 205.871 216.205 202.599 218.805 201.03L218.869 200.993L218.989 200.923L298.534 154.998C285.576 144.536 275.818 125.706 275.818 109.874Z" fill="url(#paint40_linear_142_2)"/>
<path id="Path 111" d="M346.918 133.848C342.783 131.461 339.048 131.272 336.371 132.892L298.352 154.843L218.806 200.768C221.469 199.268 225.13 199.5 229.171 201.833C237.314 206.533 243.916 217.969 243.916 227.372V257.653C243.916 263.493 248.016 270.595 253.074 273.515C258.132 276.435 262.232 274.068 262.232 268.228V203.638C262.232 199.584 263.532 196.638 265.68 195.048L265.693 195.04C266.09 194.747 266.518 194.5 266.97 194.303L347.57 147.766L356.085 142.85C353.744 139.199 350.611 136.123 346.918 133.848V133.848Z" fill="url(#paint41_linear_142_2)"/>
<path id="Path 112" d="M431.372 240.524C418.254 232.951 407.619 214.531 407.619 199.384V151.646C407.619 142.773 401.39 131.984 393.706 127.546C389.533 125.136 385.791 125.101 383.241 126.989L355.901 142.774L347.386 147.69L266.786 194.227C269.235 193.156 272.446 193.499 275.962 195.527C283.077 199.635 288.934 209.186 289.762 217.627C289.829 218.303 289.873 218.973 289.873 219.627V267.365C289.873 282.513 300.508 300.932 313.626 308.505L341.418 324.551L459.16 256.57L431.372 240.524Z" fill="url(#paint42_linear_142_2)"/>
<g id="Group 21" style="mix-blend-mode:multiply">
<g id="Path 113" style="mix-blend-mode:multiply">
<path d="M395.211 202.297L327.011 241.671V245.74L395.211 206.366V202.297Z" fill="#E8ECF7"/>
</g>
<g id="Path 114" style="mix-blend-mode:multiply">
<path d="M327.013 235.366L388.108 200.093V196.024L327.013 231.297V235.366Z" fill="#E8ECF7"/>
</g>
<g id="Path 115" style="mix-blend-mode:multiply">
<path d="M381.973 189.192L327.013 220.923V224.992L381.973 193.261V189.192Z" fill="#BBC0E6"/>
</g>
<g id="Path 116" style="mix-blend-mode:multiply">
<path d="M395.211 171.176L327.011 210.55V214.619L395.211 175.245V171.176Z" fill="#E8ECF7"/>
</g>
<g id="Path 117" style="mix-blend-mode:multiply">
<path d="M392.808 148.294L324.608 187.669C325.263 189.122 325.774 190.635 326.134 192.188L394.337 152.806C393.976 151.256 393.464 149.744 392.808 148.294V148.294Z" fill="#E8ECF7"/>
</g>
<g id="Path 118" style="mix-blend-mode:multiply">
<path d="M377.955 141.087L316.462 176.587C317.772 177.606 318.931 178.805 319.905 180.148L381.405 144.638C380.428 143.298 379.267 142.102 377.955 141.087Z" fill="#E8ECF7"/>
</g>
<g id="Path 119" style="mix-blend-mode:multiply">
<path d="M403.694 232.514L335.054 271.191C335.838 272.443 336.665 273.665 337.536 274.843L405.736 235.469C405.025 234.51 404.345 233.522 403.694 232.514Z" fill="#E8ECF7"/>
</g>
<g id="Path 120" style="mix-blend-mode:multiply">
<path d="M403.242 247.276L343.055 281.19C344.172 282.28 345.347 283.31 346.575 284.274L406.145 249.762C405.156 248.987 404.188 248.158 403.242 247.276Z" fill="#E8ECF7"/>
</g>
<g id="Path 121" style="mix-blend-mode:multiply">
<path d="M391.125 226.213L330.151 261.413C330.575 262.512 331.036 263.602 331.534 264.684L392.508 229.484C392.01 228.403 391.549 227.313 391.125 226.213Z" fill="#BBC0E6"/>
</g>
<g id="Path 122" style="mix-blend-mode:multiply">
<path d="M327.013 204.246L388.108 168.973V164.908L327.013 200.181V204.246Z" fill="#E8ECF7"/>
</g>
<g id="Path 123" style="mix-blend-mode:multiply">
<path d="M374.539 224.604L327.492 251.767C327.685 252.972 327.94 254.186 328.242 255.404L375.29 228.24C374.988 227.023 374.732 225.809 374.539 224.604Z" fill="#E8ECF7"/>
</g>
<g id="Path 124" style="mix-blend-mode:multiply">
<path d="M321.472 244.869L305.048 254.351V258.42L321.472 248.938V244.869Z" fill="#E8ECF7"/>
</g>
<g id="Path 125" style="mix-blend-mode:multiply">
<path d="M305.049 248.048L318.657 240.192V236.123L305.049 243.979V248.048Z" fill="#E8ECF7"/>
</g>
<g id="Path 126" style="mix-blend-mode:multiply">
<path d="M318.656 225.748L305.049 233.604V237.673L318.657 229.817L318.656 225.748Z" fill="#BBC0E6"/>
</g>
<g id="Path 127" style="mix-blend-mode:multiply">
<path d="M321.472 213.749L305.048 223.231V227.3L321.472 217.818V213.749Z" fill="#E8ECF7"/>
</g>
<g id="Path 128" style="mix-blend-mode:multiply">
<path d="M319.069 190.867L302.643 200.351C303.299 201.804 303.81 203.317 304.169 204.87L320.598 195.384C320.238 193.832 319.725 192.319 319.069 190.867V190.867Z" fill="#E8ECF7"/>
</g>
<g id="Path 129" style="mix-blend-mode:multiply">
<path d="M310.916 179.793L294.497 189.272C295.807 190.29 296.967 191.489 297.941 192.832L314.369 183.347C313.392 182.005 312.229 180.809 310.916 179.793V179.793Z" fill="#E8ECF7"/>
</g>
<g id="Path 130" style="mix-blend-mode:multiply">
<path d="M325.01 276.989L313.089 283.872C313.873 285.124 314.7 286.345 315.57 287.523L327.492 280.64C326.784 279.682 325.662 277.997 325.01 276.989Z" fill="#E8ECF7"/>
</g>
<g id="Path 131" style="mix-blend-mode:multiply">
<path d="M337.513 284.389L321.09 293.871C322.207 294.961 323.382 295.991 324.609 296.955L341.033 287.473C340.043 286.698 338.456 285.274 337.513 284.389Z" fill="#E8ECF7"/>
</g>
<g id="Path 132" style="mix-blend-mode:multiply">
<path d="M324.609 264.615L308.186 274.097C308.61 275.195 309.071 276.285 309.569 277.367L325.992 267.885C325.494 266.804 325.033 265.714 324.609 264.615Z" fill="#BBC0E6"/>
</g>
<g id="Path 133" style="mix-blend-mode:multiply">
<path d="M305.049 216.927L314.37 211.546V207.477L305.049 212.858V216.927Z" fill="#E8ECF7"/>
</g>
<g id="Path 134" style="mix-blend-mode:multiply">
<path d="M318.754 256.812L305.527 264.449C305.72 265.654 305.975 266.868 306.278 268.085L319.505 260.449C319.202 259.231 318.949 258.017 318.754 256.812Z" fill="#E8ECF7"/>
</g>
</g>
<g id="Group 22" style="mix-blend-mode:multiply">
<g id="Path 135" style="mix-blend-mode:multiply">
<path d="M256.479 236.883L262.279 233.534V229.467L256.479 232.816V236.883Z" fill="#EFEFF3"/>
</g>
<g id="Path 136" style="mix-blend-mode:multiply">
<path d="M256.479 247.256L262.279 243.907V239.838L256.479 243.187V247.256Z" fill="#EFEFF3"/>
</g>
<g id="Path 137" style="mix-blend-mode:multiply">
<path d="M256.479 226.509L262.279 223.16V219.091L256.479 222.44V226.509Z" fill="#EFEFF3"/>
</g>
<g id="Path 138" style="mix-blend-mode:multiply">
<path d="M256.479 257.63L262.279 254.281V250.212L256.479 253.561V257.63Z" fill="#EFEFF3"/>
</g>
</g>
<g id="Group 23" style="mix-blend-mode:multiply">
<g id="Path 139" style="mix-blend-mode:multiply">
<path d="M263.666 100.362L191.577 141.982C191.856 143.222 192.077 144.456 192.226 145.677L264.317 104.062C264.167 102.837 263.945 101.603 263.666 100.362Z" fill="#EFEFF3"/>
</g>
<g id="Path 140" style="mix-blend-mode:multiply">
<path d="M253.981 93.066L187.714 131.326C188.511 132.918 189.222 134.552 189.846 136.22L256.116 97.96C255.491 96.2921 254.778 94.6585 253.981 93.066V93.066Z" fill="#EFEFF3"/>
</g>
<g id="Path 141" style="mix-blend-mode:multiply">
<path d="M233.55 76.622C232.817 76.198 232.092 75.822 231.376 75.494L168.976 111.519C169.691 111.847 170.415 112.223 171.15 112.646C172.416 113.383 173.63 114.205 174.784 115.107L237.184 79.083C236.03 78.1813 234.816 77.3591 233.55 76.622V76.622Z" fill="#EFEFF3"/>
</g>
<g id="Path 142" style="mix-blend-mode:multiply">
<path d="M252.738 79.083L180.643 120.704C181.812 122.054 182.907 123.466 183.923 124.935L256.016 83.313C255 81.8449 253.906 80.4328 252.738 79.083V79.083Z" fill="#EFEFF3"/>
</g>
<g id="Path 143" style="mix-blend-mode:multiply">
<path d="M254.96 115.765L192.475 151.836V155.905L254.96 119.836V115.765Z" fill="#EFEFF3"/>
</g>
<g id="Path 144" style="mix-blend-mode:multiply">
<path d="M255.176 126.014L192.693 162.09C192.817 163.335 192.994 164.589 193.224 165.854L255.705 129.78C255.476 128.515 255.3 127.259 255.176 126.014Z" fill="#BBC0E6"/>
</g>
<g id="Path 145" style="mix-blend-mode:multiply">
<path d="M277.088 150.812L204.879 192.148C205.894 193.53 206.956 194.86 208.063 196.139L280.151 154.519C279.226 153.447 277.951 151.957 277.088 150.812Z" fill="#EFEFF3"/>
</g>
<g id="Path 146" style="mix-blend-mode:multiply">
<path d="M266.624 129.777L194.537 171.397C194.924 172.724 195.359 174.048 195.842 175.37L267.933 133.748C267.448 132.429 267.012 131.105 266.624 129.777Z" fill="#EFEFF3"/>
</g>
<g id="Path 147" style="mix-blend-mode:multiply">
<path d="M248.993 152.775L198.405 181.375C199.12 182.852 199.886 184.31 200.705 185.738L251.059 156.665C250.375 155.475 249.6 153.999 248.993 152.775Z" fill="#EFEFF3"/>
</g>
<g id="Path 148" style="mix-blend-mode:multiply">
<path d="M184.56 146.037L169.76 154.581C170.04 155.821 170.26 157.055 170.41 158.276L185.21 149.731C185.061 148.51 184.84 147.275 184.56 146.037Z" fill="#EFEFF3"/>
</g>
<g id="Path 149" style="mix-blend-mode:multiply">
<path d="M183.076 134.004L165.898 143.922C166.695 145.515 167.406 147.148 168.03 148.816L185.211 138.897C184.586 137.229 183.874 135.596 183.076 134.004V134.004Z" fill="#EFEFF3"/>
</g>
<g id="Path 150" style="mix-blend-mode:multiply">
<path d="M166.52 115.325C165.787 114.901 165.062 114.525 164.346 114.197L147.165 124.117C147.88 124.446 148.604 124.822 149.338 125.245C150.604 125.982 151.818 126.804 152.972 127.706L170.149 117.789C168.997 116.886 167.784 116.063 166.52 115.325V115.325Z" fill="#EFEFF3"/>
</g>
<g id="Path 151" style="mix-blend-mode:multiply">
<path d="M173.302 124.945L158.832 133.3C160.001 134.65 161.095 136.063 162.111 137.532L176.585 129.175C175.568 127.707 174.472 126.295 173.302 124.945V124.945Z" fill="#EFEFF3"/>
</g>
<g id="Path 152" style="mix-blend-mode:multiply">
<path d="M187.836 154.518L170.659 164.44V168.509L187.836 158.592V154.518Z" fill="#EFEFF3"/>
</g>
<g id="Path 153" style="mix-blend-mode:multiply">
<path d="M184.106 167.045L170.877 174.683C171.001 175.928 171.178 177.182 171.407 178.446L184.636 170.809C184.407 169.546 184.23 168.291 184.106 167.045Z" fill="#BBC0E6"/>
</g>
<g id="Path 154" style="mix-blend-mode:multiply">
<path d="M197.292 196.527L183.063 204.746C184.078 206.129 185.14 207.459 186.248 208.738L200.477 200.523C199.552 199.446 198.156 197.672 197.292 196.527Z" fill="#EFEFF3"/>
</g>
<g id="Path 155" style="mix-blend-mode:multiply">
<path d="M185.951 176.353L172.721 183.991C173.108 185.318 173.541 186.643 174.021 187.964L187.256 180.322C186.775 179.004 186.34 177.681 185.951 176.353Z" fill="#EFEFF3"/>
</g>
<g id="Path 156" style="mix-blend-mode:multiply">
<path d="M193.763 184.055L176.59 193.974C177.305 195.451 178.071 196.909 178.89 198.336L196.07 188.417C195.385 187.228 194.373 185.274 193.763 184.055Z" fill="#EFEFF3"/>
</g>
</g>
<g id="Path 157" style="mix-blend-mode:multiply">
<path d="M348.278 311.12L378.359 293.753L363.013 284.893L332.932 302.261L348.278 311.12Z" fill="#E8ECF7"/>
</g>
<path id="Path 158" style="mix-blend-mode:multiply" d="M381.365 284.82L402.009 272.901L397.844 270.501L377.196 282.415L381.365 284.82Z" fill="url(#paint43_linear_142_2)"/>
<path id="Path 159" style="mix-blend-mode:multiply" d="M152.965 104.529L90.719 140.471L115.544 154.805V144.83C115.544 137.922 118.011 133.107 121.98 130.93L160.329 108.79L152.965 104.529Z" fill="url(#paint44_linear_142_2)"/>
<g id="translat_3" style="transform-origin: center; transform-box: fill-box; animation: translateX 2s linear infinite alternate;">
<g id="Group 24">
<path id="Path 160" d="M447.547 324.99C447.547 319.31 443.947 319.143 443.947 319.143C442.176 319.014 440.443 318.568 438.829 317.828C435.704 316.528 431.298 317.028 433.761 321.573C433.784 321.631 433.813 321.688 433.845 321.742C434.051 322.037 434.325 322.277 434.645 322.442L442.515 327.058C443.71 327.739 447.52 326.158 447.547 324.99Z" fill="url(#paint45_linear_142_2)"/>
<path id="Path 161" d="M447.525 324.48C447.458 325.645 443.699 327.199 442.512 326.518L434.642 321.906C434.249 321.67 433.878 321.399 433.534 321.096C433.605 321.252 433.668 321.401 433.76 321.57C433.784 321.628 433.812 321.685 433.844 321.739C434.05 322.034 434.324 322.274 434.644 322.439L442.514 327.055C443.636 327.696 447.049 326.348 447.5 325.211C447.519 325.136 447.531 325.059 447.536 324.982C447.544 324.815 447.54 324.647 447.525 324.48V324.48Z" fill="#131147"/>
<path id="Path 162" d="M446.083 318.394C444.669 318.58 443.27 318.857 441.892 319.224C441.867 319.526 441.766 319.817 441.6 320.07C441.568 320.104 441.539 320.141 441.508 320.181C440.865 320.628 440.208 321.335 441.738 322.294C442.145 322.594 442.646 322.739 443.15 322.703C443.655 322.666 444.13 322.45 444.489 322.094C444.687 321.683 444.994 321.334 445.377 321.086C445.632 320.909 445.922 320.787 446.227 320.728C446.228 320.702 446.231 320.676 446.235 320.65C446.235 320.65 446.473 318.394 446.083 318.394Z" fill="white"/>
<path id="Path 163" d="M446.146 262.836C442.587 262.9 433.695 263.061 430.14 263.123C431.463 273.817 434.129 283.529 435.906 293.887C437.817 303.953 439.968 311.026 441.847 319.402C442.536 320.961 445.681 320.371 446.319 318.87C446.819 311.155 447.39 301.758 445.103 292.857C445.48 283.264 446.366 272.525 446.146 262.836Z" fill="url(#paint46_linear_142_2)"/>
</g>
<g id="Group 25">
<path id="Path 164" d="M429.617 335.411C429.617 329.729 426.017 329.565 426.017 329.565C424.246 329.436 422.513 328.991 420.899 328.251C417.774 326.951 413.368 327.451 415.829 331.993C415.855 332.051 415.883 332.107 415.915 332.162C416.12 332.457 416.395 332.698 416.715 332.862L424.581 337.478C425.781 338.163 429.589 336.581 429.617 335.411Z" fill="url(#paint47_linear_142_2)"/>
<path id="Path 165" d="M429.596 334.9C429.529 336.065 425.77 337.621 424.58 336.939L416.715 332.328C416.32 332.093 415.948 331.822 415.604 331.518C415.678 331.675 415.739 331.825 415.829 331.993C415.855 332.051 415.883 332.107 415.915 332.162C416.12 332.457 416.395 332.698 416.715 332.862L424.581 337.478C425.703 338.12 429.117 336.771 429.568 335.638C429.588 335.562 429.599 335.484 429.602 335.406C429.612 335.237 429.61 335.068 429.596 334.9V334.9Z" fill="#131147"/>
<path id="Path 166" d="M428.151 328.816C426.738 329.002 425.339 329.279 423.962 329.645C423.936 329.947 423.836 330.238 423.672 330.493C423.638 330.529 423.61 330.566 423.58 330.602C422.934 331.05 422.28 331.758 423.808 332.718C424.215 333.019 424.715 333.164 425.219 333.129C425.724 333.093 426.199 332.879 426.559 332.524C426.758 332.114 427.064 331.766 427.445 331.516C427.701 331.338 427.991 331.216 428.297 331.156C428.298 331.13 428.3 331.105 428.305 331.08C428.305 331.08 428.541 328.816 428.151 328.816Z" fill="white"/>
<path id="Path 167" d="M434.86 288.248C435.832 283.648 447.05 283.081 446.314 265.004C442.794 264.486 425.037 272.815 421.519 272.297C421.079 283.061 422.119 293.082 422.185 303.588C422.425 313.83 423.392 321.16 423.878 329.731C424.302 331.384 427.501 331.315 428.378 329.939C430.128 322.408 432.228 313.229 431.426 304.074C432.472 299.003 433.72 293.631 434.86 288.248Z" fill="url(#paint48_linear_142_2)"/>
</g>
<path id="Path 168" d="M438.184 230.019C450.711 238.387 452.204 255.013 445.432 265.559C445.432 265.559 446.887 242.186 438.184 230.019Z" fill="url(#paint49_linear_142_2)"/>
<g id="Group 26">
<path id="Path 169" d="M438.766 275.365C431.142 279.646 423.166 279.654 420.445 274.394C421.464 264.601 422.418 256.631 420.453 247.243C421.031 242.06 421.441 241.281 420.777 238.256C421.011 237.241 424.131 235.078 426.402 233.002C428.857 230.764 430.515 228.631 431.779 228.374C442.205 226.245 447.269 244.823 446.397 264.63C446.07 266.897 445.207 269.053 443.879 270.92C442.552 272.787 440.799 274.311 438.766 275.365Z" fill="url(#paint50_linear_142_2)"/>
<path id="Path 170" d="M437.561 229.552C435.299 227.916 435.481 224.539 435.67 222.295C436.04 221.038 436.184 219.726 436.093 218.419C435.759 213.478 432.321 209.419 428.483 209.946C420.746 211.003 422.405 215.002 422.738 219.946C423.049 224.523 425.338 227.533 428.845 227.829C428.896 228.583 428.588 230.869 427.645 231.819C430.191 233.342 433.905 232.625 435.374 231.964C436.932 231.259 438.622 230.652 437.561 229.552Z" fill="#FCD1A9"/>
<path id="Path 171" d="M425.393 207.537C425.577 206.917 426.76 206.514 430.777 208.061C430.804 208.073 431.753 208.443 431.815 208.467C439.254 211.689 437.457 220.267 436.346 222.546C435.88 223.365 435.676 224.307 435.761 225.246C432.837 225.126 431.91 226.772 430.038 225.132C428.694 223.958 426.685 222.58 426.348 222.005C426.106 221.574 426.009 221.076 426.073 220.586C426.066 216.475 424.167 218.986 424.229 219.931C423.45 219.551 423.503 217.899 423.553 216.061C417.238 211.347 420.633 208.098 425.393 207.537Z" fill="url(#paint51_linear_142_2)"/>
</g>
<g id="Group 27">
<path id="Path 172" d="M421.377 277.995C421.61 278.263 421.895 278.48 422.215 278.632C422.535 278.785 422.883 278.869 423.238 278.881C423.592 278.893 423.945 278.831 424.275 278.7C424.604 278.569 424.903 278.372 425.153 278.12C426.387 276.82 425.674 275.378 426.353 274.944C428.202 273.758 428.627 272.644 428.315 271.525C426.839 272.462 425.315 273.969 424.025 273.054C422.735 272.139 421.058 270.881 420.966 269.579C419.046 270.018 418.948 274.179 419.946 275.851C420.37 276.599 420.849 277.316 421.377 277.995V277.995Z" fill="#FCD1A9"/>
<path id="Path 173" d="M423.973 274.724C424.924 277.048 424.255 278.479 421.924 278.74C416.104 275.761 412.718 267.403 412.624 262.813C412.456 255.156 416.173 245.544 420.896 238.005C421.996 236.384 425.533 237 427.274 239.3C429.633 242.409 428.624 246.937 427.29 248.776C423.869 254.241 420.056 258.312 419.684 262.691C419.339 266.748 420.992 272.089 423.973 274.724Z" fill="url(#paint52_linear_142_2)"/>
</g>
</g>
<path id="Path 174" style="mix-blend-mode:multiply" d="M289.4 380.597H262.923L279.728 390.297L262.923 399.997H289.4L306.2 390.297L289.4 380.597Z" fill="url(#paint53_linear_142_2)"/>
<g id="Group 28">
<path id="Path 175" d="M262.959 400L279.764 390.3V370.9L262.959 380.6V400Z" fill="url(#paint54_linear_142_2)"/>
<path id="Path 176" d="M262.958 400L246.158 390.3V370.9L262.958 380.6V400Z" fill="url(#paint55_linear_142_2)"/>
<path id="Path 177" d="M262.958 380.596L246.158 370.896L262.958 361.196L279.763 370.896L262.958 380.596Z" fill="#F6F6FB"/>
</g>
<g id="Group 29">
<path id="Path 179" d="M118.419 82.66L128.575 76.797V65.071L118.419 70.93V82.66Z" fill="#BBC0E6"/>
<path id="Path 180" d="M118.418 82.66L108.264 76.797V65.071L118.418 70.933V82.66Z" fill="#CED3F8"/>
<path id="Path 181" d="M118.418 70.929L108.264 65.067L118.418 59.206L128.574 65.067L118.418 70.929Z" fill="#F6F6FB"/>
</g>
<g id="Group 30">
<path id="Path 183" d="M481.79 115.746L495.071 108.078V92.74L481.79 100.407V115.746Z" fill="#BBC0E6"/>
<path id="Path 184" d="M481.79 115.746L468.511 108.078V92.74L481.79 100.407V115.746Z" fill="#CED3F8"/>
<path id="Path 185" d="M481.79 100.406L468.511 92.739L481.79 85.074L495.071 92.739L481.79 100.406Z" fill="#F6F6FB"/>
</g>
<g id="translat_4" style="transform-origin: center; transform-box: fill-box; animation: translateY 2s linear infinite alternate;" >
<path id="Path 186" d="M237.659 2.485L269.592 20.922C271.514 22.1776 273.114 23.8669 274.264 25.8539C275.413 27.8409 276.08 30.0701 276.211 32.362V51.616C276.211 55.804 273.232 57.516 269.592 55.416L257.474 48.416L252.474 51.303L247.474 42.643L237.653 36.974C235.731 35.7186 234.131 34.0295 232.982 32.0426C231.832 30.0557 231.165 27.8267 231.035 25.535V6.279C231.038 2.091 234.017 0.383 237.659 2.485Z" fill="url(#paint56_linear_142_2)"/>
<path id="Path 187" d="M272.345 19.332L240.412 0.895001C238.498 -0.210999 236.771 -0.252999 235.56 0.555001L235.554 0.549L233.079 1.978C234.27 1.347 235.879 1.46 237.659 2.485L269.592 20.922C271.514 22.1777 273.114 23.8671 274.263 25.8541C275.413 27.841 276.08 30.0701 276.211 32.362V51.617C276.211 53.637 275.511 55.073 274.385 55.79L276.897 54.342C278.166 53.685 278.965 52.19 278.965 50.027V30.771C278.834 28.4791 278.167 26.25 277.017 24.2632C275.867 22.2763 274.267 20.5872 272.345 19.332Z" fill="url(#paint57_linear_142_2)"/>
<path id="Path 188" d="M242.286 23.066C242.286 21.525 243.368 20.9 244.703 21.666C245.407 22.1248 245.992 22.743 246.412 23.4705C246.832 24.198 247.075 25.0142 247.12 25.853C247.12 27.395 246.038 28.019 244.703 27.253C243.999 26.7942 243.414 26.176 242.994 25.4485C242.574 24.721 242.331 23.9048 242.286 23.066V23.066Z" fill="white"/>
<path id="Path 189" d="M250.057 27.553C250.057 26.011 251.139 25.387 252.474 26.153C253.178 26.6118 253.763 27.2301 254.183 27.9576C254.603 28.685 254.846 29.5012 254.891 30.34C254.891 31.881 253.808 32.506 252.474 31.735C251.771 31.2768 251.186 30.6594 250.766 29.9328C250.346 29.2063 250.103 28.3909 250.057 27.553V27.553Z" fill="white"/>
<path id="Path 190" d="M257.83 32.039C257.83 30.498 258.913 29.873 260.247 30.644C260.951 31.1026 261.536 31.7207 261.956 32.448C262.376 33.1753 262.619 33.9914 262.664 34.83C262.664 36.372 261.582 36.996 260.247 36.23C259.543 35.7708 258.957 35.1519 258.537 34.4237C258.117 33.6955 257.875 32.8784 257.83 32.039V32.039Z" fill="white"/>
</g>
</g>
</g>
</g>
<defs>
<linearGradient id="paint0_linear_142_2" x1="444.872" y1="196.182" x2="554.91" y2="196.182" gradientUnits="userSpaceOnUse">
<stop stop-color="#C4C9E4"/>
<stop offset="0.454" stop-color="#DCDFEF"/>
<stop offset="1" stop-color="white"/>
</linearGradient>
<linearGradient id="paint1_linear_142_2" x1="446.252" y1="212.369" x2="478.803" y2="212.369" gradientUnits="userSpaceOnUse">
<stop stop-color="#362E94"/>
<stop offset="0.431" stop-color="#423BA9"/>
<stop offset="1" stop-color="#5652CC"/>
</linearGradient>
<linearGradient id="paint2_linear_142_2" x1="496.54" y1="162.48" x2="496.54" y2="226.01" gradientUnits="userSpaceOnUse">
<stop stop-color="#00A79D"/>
<stop offset="1" stop-color="#92278F"/>
</linearGradient>
<linearGradient id="paint3_linear_142_2" x1="421.973" y1="170.182" x2="473.121" y2="170.182" gradientUnits="userSpaceOnUse">
<stop offset="0.452" stop-color="#C4C9E4"/>
<stop offset="1" stop-color="white"/>
</linearGradient>
<linearGradient id="paint4_linear_142_2" x1="398.044" y1="153.026" x2="446.275" y2="153.026" gradientUnits="userSpaceOnUse">
<stop stop-color="#FB944B"/>
<stop offset="1" stop-color="#C85A2B"/>
</linearGradient>
<linearGradient id="paint5_linear_142_2" x1="398.044" y1="159.9" x2="446.275" y2="159.9" gradientUnits="userSpaceOnUse">
<stop stop-color="#FB944B"/>
<stop offset="1" stop-color="#E57139"/>
</linearGradient>
<linearGradient id="paint6_linear_142_2" x1="398.044" y1="166.776" x2="446.275" y2="166.776" gradientUnits="userSpaceOnUse">
<stop stop-color="#FB944B"/>
<stop offset="1" stop-color="#C85A2B"/>
</linearGradient>
<linearGradient id="paint7_linear_142_2" x1="398.047" y1="173.647" x2="446.278" y2="173.647" gradientUnits="userSpaceOnUse">
<stop stop-color="#FB944B"/>
<stop offset="1" stop-color="#E57139"/>
</linearGradient>
<linearGradient id="paint8_linear_142_2" x1="402.578" y1="137.307" x2="441.752" y2="137.307" gradientUnits="userSpaceOnUse">
<stop stop-color="#FB944B"/>
<stop offset="1" stop-color="#E57139"/>
</linearGradient>
<linearGradient id="paint9_linear_142_2" x1="414.719" y1="147.529" x2="425.303" y2="147.529" gradientUnits="userSpaceOnUse">
<stop stop-color="#FB944B"/>
<stop offset="1" stop-color="#E57139"/>
</linearGradient>
<linearGradient id="paint10_linear_142_2" x1="51.172" y1="244.566" x2="120.864" y2="244.566" gradientUnits="userSpaceOnUse">
<stop stop-color="#C4C9E4"/>
<stop offset="1" stop-color="white" stop-opacity="0"/>
</linearGradient>
<linearGradient id="paint11_linear_142_2" x1="27.055" y1="213.661" x2="75.285" y2="213.661" gradientUnits="userSpaceOnUse">
<stop stop-color="#FB944B"/>
<stop offset="1" stop-color="#C85A2B"/>
</linearGradient>
<linearGradient id="paint12_linear_142_2" x1="27.055" y1="220.538" x2="75.285" y2="220.538" gradientUnits="userSpaceOnUse">
<stop stop-color="#FB944B"/>
<stop offset="1" stop-color="#E57139"/>
</linearGradient>
<linearGradient id="paint13_linear_142_2" x1="27.055" y1="227.412" x2="75.285" y2="227.412" gradientUnits="userSpaceOnUse">
<stop stop-color="#FB944B"/>
<stop offset="1" stop-color="#C85A2B"/>
</linearGradient>
<linearGradient id="paint14_linear_142_2" x1="27.055" y1="234.285" x2="75.285" y2="234.285" gradientUnits="userSpaceOnUse">
<stop stop-color="#FB944B"/>
<stop offset="1" stop-color="#E57139"/>
</linearGradient>
<linearGradient id="paint15_linear_142_2" x1="27.055" y1="241.159" x2="75.285" y2="241.159" gradientUnits="userSpaceOnUse">
<stop stop-color="#FB944B"/>
<stop offset="1" stop-color="#C85A2B"/>
</linearGradient>
<linearGradient id="paint16_linear_142_2" x1="27.055" y1="248.031" x2="75.285" y2="248.031" gradientUnits="userSpaceOnUse">
<stop stop-color="#FB944B"/>
<stop offset="1" stop-color="#E57139"/>
</linearGradient>
<linearGradient id="paint17_linear_142_2" x1="31.588" y1="197.938" x2="70.76" y2="197.938" gradientUnits="userSpaceOnUse">
<stop stop-color="#FB944B"/>
<stop offset="1" stop-color="#E57139"/>
</linearGradient>
<linearGradient id="paint18_linear_142_2" x1="43.725" y1="208.164" x2="54.31" y2="208.164" gradientUnits="userSpaceOnUse">
<stop stop-color="#FB944B"/>
<stop offset="1" stop-color="#E57139"/>
</linearGradient>
<linearGradient id="paint19_linear_142_2" x1="445.637" y1="183.309" x2="483.774" y2="183.309" gradientUnits="userSpaceOnUse">
<stop offset="0.452" stop-color="#C4C9E4"/>
<stop offset="1" stop-color="white"/>
</linearGradient>
<linearGradient id="paint20_linear_142_2" x1="435.586" y1="173.346" x2="473.123" y2="173.346" gradientUnits="userSpaceOnUse">
<stop stop-color="#C85A2B"/>
<stop offset="1" stop-color="#FB944B"/>
</linearGradient>
<linearGradient id="paint21_linear_142_2" x1="469.094" y1="194.795" x2="443.294" y2="161.119" gradientUnits="userSpaceOnUse">
<stop stop-color="#C85A2B"/>
<stop offset="1" stop-color="#FB944B"/>
</linearGradient>
<linearGradient id="paint22_linear_142_2" x1="447.262" y1="181.49" x2="457.662" y2="181.49" gradientUnits="userSpaceOnUse">
<stop stop-color="#FB944B"/>
<stop offset="1" stop-color="#E57139"/>
</linearGradient>
<linearGradient id="paint23_linear_142_2" x1="189.995" y1="199.617" x2="395.014" y2="199.617" gradientUnits="userSpaceOnUse">
<stop stop-color="#C4CAE9"/>
<stop offset="0.293" stop-color="#C7CCEA"/>
<stop offset="0.534" stop-color="#D1D6EE"/>
<stop offset="0.757" stop-color="#E2E5F4"/>
<stop offset="0.968" stop-color="#FAFBFD"/>
<stop offset="1" stop-color="white"/>
</linearGradient>
<linearGradient id="paint24_linear_142_2" x1="88.0075" y1="225.956" x2="381.058" y2="225.956" gradientUnits="userSpaceOnUse">
<stop stop-color="#00A79D"/>
<stop offset="1" stop-color="#92278F"/>
</linearGradient>
<linearGradient id="paint25_linear_142_2" x1="185.671" y1="324.912" x2="226.929" y2="324.912" gradientUnits="userSpaceOnUse">
<stop offset="0.427" stop-color="#C4C9E4"/>
<stop offset="0.577" stop-color="#D7DAEC"/>
<stop offset="0.846" stop-color="#F4F5FA"/>
<stop offset="1" stop-color="white"/>
</linearGradient>
<linearGradient id="paint26_linear_142_2" x1="176.589" y1="327.359" x2="217.873" y2="327.359" gradientUnits="userSpaceOnUse">
<stop stop-color="#00A79D"/>
<stop offset="1" stop-color="#92278F"/>
</linearGradient>
<linearGradient id="paint27_linear_142_2" x1="0" y1="333.124" x2="116.518" y2="333.124" gradientUnits="userSpaceOnUse">
<stop stop-color="#C4C9E4"/>
<stop offset="0.653" stop-color="#C1C6E4"/>
<stop offset="1" stop-color="#BBC0E6"/>
</linearGradient>
<linearGradient id="paint28_linear_142_2" x1="328.942" y1="291.619" x2="361.096" y2="291.619" gradientUnits="userSpaceOnUse">
<stop stop-color="#BBC0E6"/>
<stop offset="1" stop-color="#CED3F8"/>
</linearGradient>
<linearGradient id="paint29_linear_142_2" x1="304.881" y1="307.513" x2="328.869" y2="307.513" gradientUnits="userSpaceOnUse">
<stop stop-color="#BBC0E6"/>
<stop offset="1" stop-color="#CED3F8"/>
</linearGradient>
<linearGradient id="paint30_linear_142_2" x1="77.943" y1="286.01" x2="77.943" y2="337.402" gradientUnits="userSpaceOnUse">
<stop stop-color="#00A79D"/>
<stop offset="1" stop-color="#92278F"/>
</linearGradient>
<linearGradient id="paint31_linear_142_2" x1="63.998" y1="299.92" x2="63.998" y2="338.946" gradientUnits="userSpaceOnUse">
<stop stop-color="#00A79D"/>
<stop offset="1" stop-color="#92278F"/>
</linearGradient>
<linearGradient id="paint32_linear_142_2" x1="108.454" y1="173.548" x2="167.055" y2="173.548" gradientUnits="userSpaceOnUse">
<stop stop-color="#C4C9E4"/>
<stop offset="1" stop-color="white" stop-opacity="0"/>
</linearGradient>
<linearGradient id="paint33_linear_142_2" x1="199.093" y1="220.873" x2="251.317" y2="220.873" gradientUnits="userSpaceOnUse">
<stop stop-color="#C4C9E4"/>
<stop offset="1" stop-color="#C8C8C8" stop-opacity="0"/>
</linearGradient>
<linearGradient id="paint34_linear_142_2" x1="257.401" y1="263.937" x2="307.282" y2="263.937" gradientUnits="userSpaceOnUse">
<stop stop-color="#C4C9E4"/>
<stop offset="1" stop-color="#E8ECF7" stop-opacity="0"/>
</linearGradient>
<linearGradient id="paint35_linear_142_2" x1="367.51" y1="221.155" x2="496.492" y2="221.155" gradientUnits="userSpaceOnUse">
<stop stop-color="#DAE0F5"/>
<stop offset="0.715" stop-color="white"/>
</linearGradient>
<linearGradient id="paint36_linear_142_2" x1="127.445" y1="123.217" x2="161.688" y2="148.441" gradientUnits="userSpaceOnUse">
<stop offset="0.041" stop-color="#BBC0E6"/>
<stop offset="0.606" stop-color="#B9BEE4"/>
<stop offset="0.81" stop-color="#B3B9DD"/>
<stop offset="0.954" stop-color="#A9AFD1"/>
<stop offset="1" stop-color="#A5ABCC"/>
</linearGradient>
<linearGradient id="paint37_linear_142_2" x1="222.213" y1="165.822" x2="256.456" y2="191.046" gradientUnits="userSpaceOnUse">
<stop offset="0.041" stop-color="#BBC0E6"/>
<stop offset="0.898" stop-color="#A7ADCF"/>
<stop offset="1" stop-color="#A5ABCC"/>
</linearGradient>
<linearGradient id="paint38_linear_142_2" x1="270.334" y1="188.22" x2="321.202" y2="210.28" gradientUnits="userSpaceOnUse">
<stop offset="0.041" stop-color="#BBC0E6"/>
<stop offset="0.538" stop-color="#B9BEE3"/>
<stop offset="0.78" stop-color="#B2B8DC"/>
<stop offset="0.967" stop-color="#A7ADCF"/>
<stop offset="1" stop-color="#A5ABCC"/>
</linearGradient>
<linearGradient id="paint39_linear_142_2" x1="113.259" y1="120.186" x2="130.47" y2="172.479" gradientUnits="userSpaceOnUse">
<stop offset="0.041" stop-color="#EFEFF3"/>
<stop offset="1" stop-color="#DAE0F5"/>
</linearGradient>
<linearGradient id="paint40_linear_142_2" x1="188.116" y1="92.5803" x2="247.514" y2="204.845" gradientUnits="userSpaceOnUse">
<stop offset="0.041" stop-color="#F6F6FB"/>
<stop offset="0.225" stop-color="#E1E4F6"/>
<stop offset="0.415" stop-color="#D1D7F3"/>
<stop offset="0.539" stop-color="#D1D7F3"/>
<stop offset="0.949" stop-color="#F6F6FB"/>
</linearGradient>
<linearGradient id="paint41_linear_142_2" x1="278.934" y1="165.997" x2="323.477" y2="237.16" gradientUnits="userSpaceOnUse">
<stop offset="0.025" stop-color="#F6F6FB"/>
<stop offset="0.257" stop-color="#E1E4F6"/>
<stop offset="0.496" stop-color="#D1D7F3"/>
</linearGradient>
<linearGradient id="paint42_linear_142_2" x1="320.651" y1="163.042" x2="399.429" y2="290.811" gradientUnits="userSpaceOnUse">
<stop stop-color="#F6F6FB"/>
<stop offset="0.125" stop-color="#E1E4F6"/>
<stop offset="0.254" stop-color="#D1D7F3"/>
<stop offset="0.469" stop-color="#D1D7F3"/>
<stop offset="0.79" stop-color="#EFEFF3"/>
</linearGradient>
<linearGradient id="paint43_linear_142_2" x1="389.603" y1="270.501" x2="389.603" y2="284.82" gradientUnits="userSpaceOnUse">
<stop stop-color="#00A79D"/>
<stop offset="1" stop-color="#92278F"/>
</linearGradient>
<linearGradient id="paint44_linear_142_2" x1="103.458" y1="127.153" x2="116.528" y2="158.55" gradientUnits="userSpaceOnUse">
<stop stop-color="#EFEFF3"/>
<stop offset="1" stop-color="white" stop-opacity="0"/>
</linearGradient>
<linearGradient id="paint45_linear_142_2" x1="447.547" y1="333.494" x2="439.469" y2="314.475" gradientUnits="userSpaceOnUse">
<stop/>
<stop offset="1" stop-color="#474747"/>
</linearGradient>
<linearGradient id="paint46_linear_142_2" x1="438.455" y1="262.836" x2="438.455" y2="320.321" gradientUnits="userSpaceOnUse">
<stop stop-color="#00A79D"/>
<stop offset="1" stop-color="#92278F"/>
</linearGradient>
<linearGradient id="paint47_linear_142_2" x1="422.364" y1="327.627" x2="422.364" y2="337.644" gradientUnits="userSpaceOnUse">
<stop/>
<stop offset="1" stop-color="#474747"/>
</linearGradient>
<linearGradient id="paint48_linear_142_2" x1="-484.68" y1="297.976" x2="-459.742" y2="297.976" gradientUnits="userSpaceOnUse">
<stop stop-color="#00A79D"/>
<stop offset="1" stop-color="#92278F"/>
</linearGradient>
<linearGradient id="paint49_linear_142_2" x1="443.802" y1="230.019" x2="443.802" y2="265.559" gradientUnits="userSpaceOnUse">
<stop stop-color="#088483"/>
<stop offset="1" stop-color="#00A79D"/>
</linearGradient>
<linearGradient id="paint50_linear_142_2" x1="426.697" y1="235.595" x2="460.911" y2="260.326" gradientUnits="userSpaceOnUse">
<stop stop-color="#088483"/>
<stop offset="1" stop-color="#00A79D"/>
</linearGradient>
<linearGradient id="paint51_linear_142_2" x1="428.737" y1="206.986" x2="428.737" y2="225.864" gradientUnits="userSpaceOnUse">
<stop/>
<stop offset="1" stop-color="#474747"/>
</linearGradient>
<linearGradient id="paint52_linear_142_2" x1="416.476" y1="243.217" x2="441.397" y2="256.632" gradientUnits="userSpaceOnUse">
<stop stop-color="#088483"/>
<stop offset="1" stop-color="#00A79D"/>
</linearGradient>
<linearGradient id="paint53_linear_142_2" x1="262.923" y1="390.297" x2="306.2" y2="390.297" gradientUnits="userSpaceOnUse">
<stop stop-color="#C4C9E4"/>
<stop offset="0.188" stop-color="#D6DAEC"/>
<stop offset="0.477" stop-color="#ECEEF6"/>
<stop offset="0.753" stop-color="#FAFAFC"/>
<stop offset="1" stop-color="white"/>
</linearGradient>
<linearGradient id="paint54_linear_142_2" x1="271.362" y1="370.9" x2="271.362" y2="400" gradientUnits="userSpaceOnUse">
<stop stop-color="#00A79D"/>
<stop offset="1" stop-color="#92278F"/>
</linearGradient>
<linearGradient id="paint55_linear_142_2" x1="254.558" y1="370.9" x2="254.558" y2="400" gradientUnits="userSpaceOnUse">
<stop stop-color="#00A79D"/>
<stop offset="1" stop-color="#92278F"/>
</linearGradient>
<linearGradient id="paint56_linear_142_2" x1="253.623" y1="1.58508" x2="253.623" y2="56.3138" gradientUnits="userSpaceOnUse">
<stop stop-color="#00A79D"/>
<stop offset="1" stop-color="#92278F"/>
</linearGradient>
<linearGradient id="paint57_linear_142_2" x1="238.264" y1="-11.3811" x2="392.813" y2="34.19" gradientUnits="userSpaceOnUse">
<stop stop-color="#00A79D"/>
<stop offset="1" stop-color="#92278F"/>
</linearGradient>
<clipPath id="clip0_142_2">
<rect width="554.91" height="400" fill="white"/>
</clipPath>
</defs>
<style>
  @keyframes translateX {
  
    0%,
    100% {
      transform: translateX(2px);
    }
  
    50% {
      transform: translateX(-2px);
    }
  }
  
  @keyframes translateY {
    0%,
    100% {
      transform: translateY(2px);
    }
  
    50% {
      transform: translateY(-2px);
     
    }
  }
</style>
</svg>
