<svg id="svgexport-6_79_" data-name="svgexport-6 (79)" xmlns="http://www.w3.org/2000/svg" width="21.016" height="14.887" viewBox="0 0 21.016 14.887">
  <g id="Group_12" data-name="Group 12">
    <g id="Group_11" data-name="Group 11" transform="translate(0 0)">
      <path id="Path_6566" data-name="Path 6566" d="M20.723,62.156a2.347,2.347,0,0,0-1.885-1.921,67.538,67.538,0,0,0-16.659,0A2.347,2.347,0,0,0,.293,62.156a42.937,42.937,0,0,0,0,10.014,2.346,2.346,0,0,0,1.886,1.921,67.539,67.539,0,0,0,16.659,0,2.346,2.346,0,0,0,1.885-1.921A42.932,42.932,0,0,0,20.723,62.156ZM8.757,70.667V63.661l5.254,3.5Z" transform="translate(0 -59.72)" fill="#fff"/>
    </g>
  </g>
</svg>
