<svg xmlns="http://www.w3.org/2000/svg" width="24" height="24" viewBox="0 0 24 24">
  <g id="Group_116" data-name="Group 116" transform="translate(-818 -2327)">
    <g id="arrow-circle-down_bulk" data-name="arrow-circle-down/bulk" transform="translate(818 2327)">
      <g id="vuesax_bulk_arrow-circle-down" data-name="vuesax/bulk/arrow-circle-down">
        <g id="arrow-circle-down">
          <path id="Vector" d="M20,10A10,10,0,1,1,10,0,10,10,0,0,1,20,10Z" transform="translate(2 2)" fill="#fff" opacity="0.4"/>
          <path id="Vector-2" data-name="Vector" d="M4.278,5.028a.742.742,0,0,1-.53-.22L.218,1.278A.75.75,0,0,1,1.277.218l3,3,3-3a.75.75,0,0,1,1.06,1.06l-3.53,3.53A.742.742,0,0,1,4.278,5.028Z" transform="translate(7.722 9.983)" fill="#fff"/>
          <path id="Vector-3" data-name="Vector" d="M0,0H24V24H0Z" fill="none" opacity="0"/>
        </g>
      </g>
    </g>
  </g>
</svg>
