<svg xmlns="http://www.w3.org/2000/svg" width="24" height="24" viewBox="0 0 24 24">
  <g id="Group_157" data-name="Group 157" transform="translate(-1185 -2902)">
    <g id="refresh_bulk" data-name="refresh/bulk" transform="translate(1185 2902)">
      <g id="vuesax_bulk_refresh" data-name="vuesax/bulk/refresh">
        <g id="refresh">
          <path id="Vector" d="M13.3,21.17a.753.753,0,0,1-.2-1.48,9.253,9.253,0,0,0-2.36-18.2,11.3,11.3,0,0,0-8.5,4.06H5.18a.755.755,0,0,1,.01,1.51H.76a.761.761,0,0,1-.21-.03.9.9,0,0,1-.24-.12A.659.659,0,0,1,.1,6.68.867.867,0,0,1,0,6.37V1.75A.755.755,0,0,1,.75,1a.755.755,0,0,1,.75.75V4.14A12.558,12.558,0,0,1,10.75,0a10.753,10.753,0,0,1,2.74,21.15A1.225,1.225,0,0,1,13.3,21.17Z" transform="translate(1.25 1.25)" fill="#00a79d" opacity="0.4"/>
          <path id="Vector-2" data-name="Vector" d="M10.04,11.48a.17.17,0,0,1-.07-.01,10.466,10.466,0,0,1-3.12-.7.761.761,0,0,1-.48-.71.75.75,0,0,1,1.02-.69,9.221,9.221,0,0,0,2.69.61h.01a.749.749,0,0,1,.7.76v.04A.761.761,0,0,1,10.04,11.48ZM4.53,9.33a.743.743,0,0,1-.47-.16A10.822,10.822,0,0,1,1.88,6.82a.729.729,0,0,1-.14-.42.738.738,0,0,1,.33-.62.76.76,0,0,1,1.04.19A9.076,9.076,0,0,0,5,7.99a.755.755,0,0,1,.28.58.771.771,0,0,1-.16.48A.744.744,0,0,1,4.53,9.33ZM1.19,4.45a.732.732,0,0,1-.71-.52A10.705,10.705,0,0,1,0,.75.755.755,0,0,1,.75,0,.755.755,0,0,1,1.5.75a9.308,9.308,0,0,0,.41,2.73.852.852,0,0,1,.03.23.741.741,0,0,1-.52.71A.908.908,0,0,1,1.19,4.45Z" transform="translate(1.25 11.25)" fill="#00a79d"/>
          <path id="Vector-3" data-name="Vector" d="M8,4A4,4,0,1,1,4,0,4,4,0,0,1,8,4Z" transform="translate(8 8)" fill="#00a79d" opacity="0.4"/>
          <path id="Vector-4" data-name="Vector" d="M0,0H24V24H0Z" fill="none" opacity="0"/>
        </g>
      </g>
    </g>
  </g>
</svg>
