<svg xmlns="http://www.w3.org/2000/svg" width="24" height="24" viewBox="0 0 24 24">
  <g id="Group_167" data-name="Group 167" transform="translate(-1244 -2989)">
    <g id="calculator_bulk" data-name="calculator/bulk" transform="translate(1244 2989)">
      <g id="vuesax_bulk_calculator" data-name="vuesax/bulk/calculator">
        <g id="calculator">
          <path id="Vector" d="M5,20h8a5,5,0,0,0,5-5V5a5,5,0,0,0-5-5H5A5,5,0,0,0,0,5V15A5,5,0,0,0,5,20Z" transform="translate(3 2)" fill="#00a79d" opacity="0.4"/>
          <path id="Vector-2" data-name="Vector" d="M7.88,0h-6A1.884,1.884,0,0,0,0,1.88v1A1.884,1.884,0,0,0,1.88,4.76h6A1.884,1.884,0,0,0,9.76,2.88v-1A1.878,1.878,0,0,0,7.88,0Z" transform="translate(7.12 5.71)" fill="#00a79d"/>
          <path id="Vector-3" data-name="Vector" d="M1.01,2a1.006,1.006,0,0,1-.39-.08.988.988,0,0,1-.32-.21A1,1,0,0,1,0,1,1,1,0,0,1,.08.621.911.911,0,0,1,.3.291a1,1,0,0,1,.9-.27.7.7,0,0,1,.19.06.556.556,0,0,1,.17.09.609.609,0,0,1,.15.12,1.06,1.06,0,0,1,.22.33A.986.986,0,0,1,2,1a.99.99,0,0,1-.99,1Z" transform="translate(7.15 12.919)" fill="#00a79d"/>
          <path id="Vector-4" data-name="Vector" d="M1,1.988A.984.984,0,0,1,.3,1.7,1,1,0,0,1,0,.988,1.017,1.017,0,0,1,.3.278a1.034,1.034,0,0,1,1.41,0,1.06,1.06,0,0,1,.22.33A.986.986,0,0,1,2,.988a.99.99,0,0,1-1,1Z" transform="translate(11.15 12.932)" fill="#00a79d"/>
          <path id="Vector-5" data-name="Vector" d="M1,1.988A.984.984,0,0,1,.3,1.7,1,1,0,0,1,0,.988,1.017,1.017,0,0,1,.3.278a1.034,1.034,0,0,1,1.41,0,1.017,1.017,0,0,1,.3.71,1,1,0,0,1-.08.38,1,1,0,0,1-.22.33A.99.99,0,0,1,1,1.988Z" transform="translate(15.15 12.932)" fill="#00a79d"/>
          <path id="Vector-6" data-name="Vector" d="M1.01,2A.99.99,0,0,1,.3,1.7,1,1,0,0,1,0,1,1.017,1.017,0,0,1,.3.285.988.988,0,0,1,.62.075a1.026,1.026,0,0,1,.77,0,.556.556,0,0,1,.17.09.609.609,0,0,1,.15.12,1.017,1.017,0,0,1,.3.71,1,1,0,0,1-.3.71A.984.984,0,0,1,1.01,2Z" transform="translate(7.15 16.925)" fill="#00a79d"/>
          <path id="Vector-7" data-name="Vector" d="M1,1.994A.984.984,0,0,1,.3,1.7,1,1,0,0,1,0,.994a1.355,1.355,0,0,1,.02-.2L.08.614.17.434A1.738,1.738,0,0,1,.3.284.988.988,0,0,1,.62.074a1.017,1.017,0,0,1,1.09.21A1.007,1.007,0,0,1,2,.994a.974.974,0,0,1-.61.92A1.006,1.006,0,0,1,1,1.994Z" transform="translate(11.15 16.926)" fill="#00a79d"/>
          <path id="Vector-8" data-name="Vector" d="M.99,1.994a1,1,0,0,1-.38-.08A.974.974,0,0,1,0,.994,1.007,1.007,0,0,1,.29.284,1.014,1.014,0,0,1,1.38.074a.988.988,0,0,1,.32.21,1.007,1.007,0,0,1,.29.71.99.99,0,0,1-1,1Z" transform="translate(15.16 16.926)" fill="#00a79d"/>
          <path id="Vector-9" data-name="Vector" d="M0,0H24V24H0Z" fill="none" opacity="0"/>
        </g>
      </g>
    </g>
  </g>
</svg>
