<svg xmlns="http://www.w3.org/2000/svg" width="24" height="24" viewBox="0 0 24 24">
  <g id="Group_138" data-name="Group 138" transform="translate(-997 -2896)">
    <g id="book_bulk" data-name="book/bulk" transform="translate(997 2896)">
      <g id="vuesax_bulk_book" data-name="vuesax/bulk/book">
        <g id="book">
          <path id="Vector" d="M17,5v8H2.85A2.855,2.855,0,0,0,0,15.85V5C0,1,1,0,5,0h7C16,0,17,1,17,5Z" transform="translate(3.5 2)" fill="#00a79d" opacity="0.4"/>
          <path id="Vector-2" data-name="Vector" d="M17,0V3.5A3.5,3.5,0,0,1,13.5,7H3.5A3.5,3.5,0,0,1,0,3.5V2.85A2.855,2.855,0,0,1,2.85,0Z" transform="translate(3.5 15)" fill="#00a79d"/>
          <path id="Vector-3" data-name="Vector" d="M8.75,1.5h-8A.755.755,0,0,1,0,.75.755.755,0,0,1,.75,0h8A.755.755,0,0,1,9.5.75.755.755,0,0,1,8.75,1.5Z" transform="translate(7.25 6.25)" fill="#00a79d"/>
          <path id="Vector-4" data-name="Vector" d="M5.75,1.5h-5A.755.755,0,0,1,0,.75.755.755,0,0,1,.75,0h5A.755.755,0,0,1,6.5.75.755.755,0,0,1,5.75,1.5Z" transform="translate(7.25 9.75)" fill="#00a79d"/>
          <path id="Vector-5" data-name="Vector" d="M0,0H24V24H0Z" fill="none" opacity="0"/>
        </g>
      </g>
    </g>
  </g>
</svg>
