<svg xmlns="http://www.w3.org/2000/svg" width="24" height="24" viewBox="0 0 24 24">
  <g id="Group_144" data-name="Group 144" transform="translate(-1244 -2991)">
    <g id="receipt_bulk" data-name="receipt/bulk" transform="translate(1244 2991)">
      <g id="vuesax_bulk_receipt" data-name="vuesax/bulk/receipt">
        <g id="receipt">
          <path id="Vector" d="M3.23,17.7a1.758,1.758,0,0,1,2.79.15L7.03,19.2a1.738,1.738,0,0,0,2.93,0l1.01-1.35a1.758,1.758,0,0,1,2.79-.15c1.78,1.9,3.23,1.27,3.23-1.39V5.04C17,1.01,16.06,0,12.28,0H4.72C.94,0,0,1.01,0,5.04V16.3C0,18.97,1.46,19.59,3.23,17.7Z" transform="translate(3.5 2)" fill="#00a79d" opacity="0.4"/>
          <path id="Vector-2" data-name="Vector" d="M8.75,1.5h-8A.755.755,0,0,1,0,.75.755.755,0,0,1,.75,0h8A.755.755,0,0,1,9.5.75.755.755,0,0,1,8.75,1.5Z" transform="translate(7.25 6.25)" fill="#00a79d"/>
          <path id="Vector-3" data-name="Vector" d="M6.75,1.5h-6A.755.755,0,0,1,0,.75.755.755,0,0,1,.75,0h6A.755.755,0,0,1,7.5.75.755.755,0,0,1,6.75,1.5Z" transform="translate(8.25 10.25)" fill="#00a79d"/>
          <path id="Vector-4" data-name="Vector" d="M0,0H24V24H0Z" fill="none" opacity="0"/>
        </g>
      </g>
    </g>
  </g>
</svg>
